<?xml version="1.0" standalone="no"?>
<!DOCTYPE svg PUBLIC "-//W3C//DTD SVG 1.1//EN" "http://www.w3.org/Graphics/SVG/1.1/DTD/svg11.dtd" >
<svg xmlns="http://www.w3.org/2000/svg">
<metadata></metadata>
<defs>
<font id="tr_freehand575regular" horiz-adv-x="1024" >
<font-face units-per-em="2048" ascent="1638" descent="-410" />
<missing-glyph horiz-adv-x="507" />
<glyph horiz-adv-x="2048" />
<glyph horiz-adv-x="2048" />
<glyph unicode="&#xd;" horiz-adv-x="507" />
<glyph unicode=" "  horiz-adv-x="507" />
<glyph unicode="&#x09;" horiz-adv-x="507" />
<glyph unicode="&#xa0;" horiz-adv-x="507" />
<glyph unicode="!" horiz-adv-x="520" d="M0 41q0 59 47 102t90 43q61 0 62 -80q0 -49 -33 -90q-33 -32 -78 -32q-47 0 -68 16q-20 6 -20 41zM119 295q0 84 63 338q33 131 74 264q31 88 92 270l4 13q20 63 64 116q31 39 63 39q33 0 56.5 -17.5t23.5 -43.5v-8q0 -6 -3 -9.5t-19 -31.5q-25 -61 -119 -344l-84 -254 q-45 -135 -92 -287v2q-4 -47 -18.5 -63.5t-51.5 -16.5q-8 0 -41 8q-12 8 -12 25z" />
<glyph unicode="&#x22;" horiz-adv-x="589" d="M92 881v553h119v-553h-119zM377 881v553h119v-553h-119z" />
<glyph unicode="#" horiz-adv-x="1574" d="M102 467l43 123h322l94 270h-342l43 123h344l168 471h148l-166 -471h260l168 471h141l-164 -471h307l-43 -123h-311l-92 -270h330l-43 -123h-332l-168 -467h-143l168 467h-267l-168 -467h-143l168 467h-322zM612 590h265l96 270h-264z" />
<glyph unicode="$" horiz-adv-x="1013" d="M31 262q0 27 20.5 49.5t40.5 22.5q16 0 29 -23q6 -16 14 -35q0 -6 4 -10q94 -178 310 -178q109 0 124 82q-12 63 -88 137q-53 45 -151 144q-31 35 -47 61q-31 61 -31 125q0 80 55 203q49 109 150 235q109 137 217 162v2q43 199 88 295q29 61 57 78q10 10 29 10 q43 0 43 -47q0 -16 -12 -49v-2v-2q-8 -57 -35 -129q-35 -94 -70 -172q6 -4 28.5 -32t61.5 -83q43 -27 113 -84q31 -27 31 -70q0 -14 -23.5 -31.5t-48.5 -17.5h-6q-6 2 -8 2q-35 18 -82 111q-2 0 -3 1t-1 3q-29 63 -78 63q-43 0 -84 -26q-10 -6 -45 -33l-21 -20 q-55 -55 -94 -115q-100 -147 -100 -285q0 -39 12 -80t45 -88l17 -24q57 -70 141 -133q94 -72 94 -129q0 -74 -77 -121t-195 -47h-2q-2 0 -2 -2h-7q-4 0 -8 -3h-10q-37 -84 -82 -231q-41 -131 -80 -131q-25 0 -43 20.5t-18 49.5q0 37 22 106q37 111 76 209q-166 45 -250 197 q-20 37 -20 65z" />
<glyph unicode="%" horiz-adv-x="976" d="M-37 74q0 10 27 47q23 31 84 100l8 8l680 756q233 258 315 258q14 0 24.5 -12t10.5 -33q0 -27 -56.5 -72t-103.5 -96v2l-460 -516q-170 -190 -295 -340q-150 -180 -174 -180q-18 0 -27 8q-4 2 -8 6l-6 6q-18 23 -19 58zM182 858q0 49 27 122t70 142q25 41 65 70 q49 27 82 27h8q6 -2 8 -2t9 -5q14 -4 30 -16v2q115 -8 115 -133q0 -127 -83 -236.5t-198 -109.5q-96 0 -122 80q-10 27 -11 59zM311 848v2q0 -31 13 -47q6 -14 28 -15q43 0 92.5 87.5t49.5 175.5q0 27 -10.5 43t-26.5 16q-37 0 -91.5 -95t-54.5 -167zM371 74q0 106 73 252 q43 84 80 100q29 12 66 16v2q8 4 23.5 11.5t35.5 9.5h19q86 0 118 -113q8 -35 9 -76q0 -129 -69 -218t-171 -89q-113 0 -149 25q-35 16 -35 80zM508 55v2q0 -23 16 -22q8 -4 17 -4q47 0 96 76.5t49 154.5q0 86 -43 86q-33 0 -84 -103.5t-51 -189.5z" />
<glyph unicode="&#x26;" horiz-adv-x="1062" d="M-39 197q0 129 404 413l8 8q-18 92 -19 177q0 133 60.5 209.5t165.5 76.5h8q4 0 11 -2t24 -8q47 -4 77.5 -45t30.5 -90q0 -70 -54 -152t-163 -186q61 -244 141 -381q96 78 97 139v4q0 2 -2 5v6l-2 2q-10 -2 -33 -6h-21q-33 0 -57 30q-31 37 -31 56q0 29 97.5 51t234.5 22 q45 0 63.5 -10t18.5 -45q0 -45 -82 -55q-68 -8 -137 -29q4 -4 14 -12q20 -41 21 -43q0 -86 -115 -201q31 -25 88 -80q8 -10 8 -14q0 -10 -24.5 -22.5t-44.5 -12.5q-18 0 -43 12.5t-74 48.5v3q-82 -49 -162 -65.5t-164 -16.5q-164 0 -250 57q-94 61 -94 156zM131 178 q0 -74 88 -92q27 -6 66 -6q137 0 268 70q-100 174 -160 358v2l-8 -8q-254 -254 -254 -324zM498 725q0 -2 2 -4v-4q88 106 121 211q8 29 8 51q0 14 -6.5 22.5t-12.5 8.5q-8 0 -27.5 -19.5t-37.5 -56.5q-23 -47 -37 -96q-10 -61 -10 -93v-20z" />
<glyph unicode="'" horiz-adv-x="303" d="M92 881v553h119v-553h-119z" />
<glyph unicode="(" horiz-adv-x="604" d="M82 180q0 309 172 658q45 96 119 202q82 119 164 172q94 59 182 60q31 0 63 -12q43 -14 43 -39q0 -27 -53 -33t-88 -21q-80 -33 -154 -123q-115 -141 -208 -421q-98 -295 -99 -482q0 -233 117 -426q0 -12 -7 -17t-12.5 -6t-7.5 -1h-6q-72 0 -148.5 150.5t-76.5 338.5z " />
<glyph unicode=")" horiz-adv-x="604" d="M-252 -258q0 25 56.5 31t84.5 18q80 33 152 125q80 102 135 231q84 195 127 362t43 304q0 186 -61 336q-23 51 -52 96v2q0 6 5 10l4 5q10 10 20 10q72 0 152 -151.5t80 -346.5t-81 -430t-212 -424q-160 -229 -342 -229q-111 0 -111 51z" />
<glyph unicode="*" horiz-adv-x="507" d="M211 981v2v2q0 25 98 92q14 10 45 31q-23 12 -63 41q-23 23 -23 33q0 29 31 28q10 0 41 -10q39 -18 57 -33v2q4 4 15 35q33 92 65 92q31 0 31 -28q0 -14 -19 -51q-6 -14 -16 -35q29 16 70 37q27 10 35 10q12 0 16 -4h6v-4q0 -10 -70 -60q-23 -14 -63 -45l29 -18 q14 -10 28 -21q31 -14 31 -20q0 -12 -11.5 -27.5t-23.5 -15.5q-6 0 -51 28q-14 8 -41 25q-14 -41 -18 -66q-25 -74 -52 -73h-6q-4 0 -8 4l-2 4q-2 0 -2 2v2v2q0 14 4 43q6 23 21 66q-43 -31 -93 -62q-37 -18 -45 -18q-4 0 -12 4l-2 4q-2 0 -2 2z" />
<glyph unicode="+" horiz-adv-x="1705" d="M254 553v117h541v551h116v-551h539v-117h-539v-553h-116v553h-541z" />
<glyph unicode="," horiz-adv-x="507" d="M-20 -150q0 29 79 168v5q2 2 13 18q16 29 47 72q20 25 37 24q8 0 15 -2t17 -12q16 -16 17 -33q0 -14 -55 -90l-44 -66l-36 -53v-4q-2 -2 -7 -6q-34 -55 -59 -55q-10 0 -17 9t-7 25z" />
<glyph unicode="-" horiz-adv-x="700" d="M84 330v2q121 27 301 26q98 0 129 -17t31 -69q-6 -20 -10.5 -26t-24.5 -8l-283 -23q-37 -4 -59 -4q-57 0 -70.5 17.5t-13.5 101.5z" />
<glyph unicode="." horiz-adv-x="507" d="M41 39q0 53 41 91t94 38q37 0 49 -16q20 -16 21 -43q0 -70 -80 -127q-19 -13 -35 -13q-90 0 -90 70z" />
<glyph unicode="/" horiz-adv-x="604" d="M-41 -123q0 53 111 301q31 68 139 305q59 119 182 383l6 15q66 154 172 315q70 104 107 104q18 0 32.5 -16t14.5 -39q0 -12 -3 -17t-7 -10.5t-6 -7.5v2q-242 -463 -445 -921q-211 -479 -239 -479q-29 0 -43 18q-20 16 -21 47z" />
<glyph unicode="0" horiz-adv-x="1013" d="M12 322q0 119 72 305q53 139 109 233q100 174 192 266q137 137 258 138q135 0 266 -103q43 -27 66.5 -99.5t23.5 -168.5q0 -217 -106 -455q-76 -168 -186.5 -293t-237.5 -165q-63 -21 -129 -21q-141 0 -231 100q-96 106 -97 263zM158 279q0 -106 42 -161t132 -55v3 q98 -6 198 81q80 70 170 228q168 291 168 561q0 154 -69 186q-27 10 -64 11q-51 0 -109.5 -28t-113.5 -81q-145 -137 -246 -340q-109 -217 -108 -405z" />
<glyph unicode="1" horiz-adv-x="540" d="M-125 74q0 43 154 65q12 2 37 6v2q25 133 104 381q70 223 205 594h-19q-4 -2 -8 -2h-29q-4 -2 -10 -2h-12q-43 0 -64.5 12.5t-21.5 32.5q0 55 67.5 80t227.5 25q41 0 65.5 -18.5t24.5 -41.5q0 -10 -47 -121q-203 -471 -336 -929l8 2q59 -4 80 -21q33 -14 33 -45 q0 -43 -74 -55h-16q-2 -2 -4 -2h-7q-76 -14 -178 -31q-80 -12 -98 -12q-82 0 -82 80z" />
<glyph unicode="2" horiz-adv-x="1013" d="M8 90q0 35 60 47q31 6 90 25q102 43 237 182t289 363q78 113 117 198q43 94 43 150q0 31 -15.5 45t-50.5 14q-61 0 -160 -61q-57 -37 -151 -127q-150 -143 -217 -246q-12 -12 -25 -35q-27 -47 -53 -47q-27 0 -47 27q-25 20 -25 49q0 18 51.5 98t131.5 178 q141 174 241 250q111 84 189 84q102 0 129 -82q76 -27 119 -77t43 -109q0 -141 -185.5 -387t-480.5 -467v2q10 -2 24 -2q29 0 90.5 4t92.5 4q133 0 166 -16q43 -16 43 -66q0 -25 -11.5 -37t-44.5 -22h-18q-10 0 -21 2h-49q-8 0 -16 2h-31q-156 0 -418 -37q-74 -10 -73 -10 q-23 0 -47 24q-16 33 -17 80z" />
<glyph unicode="3" horiz-adv-x="1013" d="M-8 141q0 55 33 88l12 13q8 8 22 8q33 0 58 -74l4 -12q0 -16 24 -45q33 -39 80 -39q33 0 111 33q115 49 233 137q61 47 88 96q10 23 11 43q0 96 -123 119q-41 6 -94 6h-70q-16 -2 -33 -2h-35q-6 -2 -10 -2h-4q-29 0 -29 39q0 55 52 82q25 12 98 28q4 0 6 3 q100 20 240 102q117 68 190 164q41 53 41 98q0 39 -23.5 56.5t-78.5 17.5q-88 0 -230 -60q-158 -66 -291 -178q-18 -16 -53 -47q-10 -8 -14 -8q-14 0 -37 18l-8 9q-10 10 -10 24q0 25 47 78q39 43 127 113q133 104 249 157q129 59 195 60q43 0 70 -23q29 -14 43 -53 q66 -33 112 -84q37 -49 37 -113q0 -98 -111.5 -199.5t-316.5 -187.5v2q195 -59 203 -231v-6t2 -9v-24q0 -57 -50 -124t-138 -124q-199 -129 -373 -129q-109 0 -182.5 52.5t-73.5 127.5z" />
<glyph unicode="4" horiz-adv-x="1013" d="M0 326q0 45 114.5 186t508.5 565q47 51 149 148q68 53 92 53q47 0 103 -23q45 -18 45 -41q0 -4 -21 -51q-143 -326 -280 -774h26q4 -2 6 -2h5q88 0 118.5 -17.5t30.5 -68.5v-6q0 -6 -2 -12v-13h-4q-2 0 -4 2h-8q-45 4 -66 4h-25q-6 -2 -14 -2h-18q-29 -2 -88 -6 q-41 -109 -68 -198q-33 -111 -70 -111q-66 0 -65 70q0 45 47 225l2 12q-182 -10 -291 -22l-145 -17q-35 0 -56.5 31t-21.5 68zM156 367q305 23 401 22v2q57 147 143 395l74 211q31 86 47 136q-264 -291 -520 -594q-78 -90 -145 -172z" />
<glyph unicode="5" horiz-adv-x="1013" d="M6 168q0 37 21 82q27 53 59 53q25 0 29 -41q2 -23 10 -59q20 -51 66.5 -87t93.5 -36q43 0 108 31q102 47 225 184q147 166 148 270q0 45 -25.5 62.5t-87.5 17.5q-141 0 -311 -88q-33 -18 -98 -53q-12 -6 -19 -6q-25 0 -61.5 41t-36.5 57q0 10 63 174q31 82 95 248 q31 84 82 192q25 33 163 54q125 18 340 18q94 0 115 -16.5t21 -61.5q0 -53 -199 -65q-188 -12 -326 -33q-29 -55 -129 -305q-25 -61 -49 -133v2l41 20q66 33 121 49q82 25 160 25q115 0 193.5 -77t78.5 -177q0 -80 -55 -172q-86 -143 -267 -266q-104 -70 -213 -101 q-49 -12 -94 -12q-180 0 -241 125q-20 39 -21 84z" />
<glyph unicode="6" horiz-adv-x="1013" d="M61 266q0 147 78 334q86 203 212 370t227.5 258t146.5 91q37 0 61.5 -15.5t24.5 -37.5q0 -23 -51 -47q-61 -39 -179 -187.5t-221 -335.5v2q92 70 193 95q29 6 57 6q76 0 166 -74q31 -27 66 -61q47 -66 47 -138q0 -160 -127 -313q-117 -141 -260 -197q-80 -31 -176 -30 q-127 0 -193 73q-72 80 -72 207zM217 215q0 -66 31 -102.5t84 -36.5q80 0 184 92q236 207 236 375q0 131 -158 131q-143 0 -289 -121v2q-88 -184 -88 -340z" />
<glyph unicode="7" horiz-adv-x="843" d="M14 10q0 41 217 363q195 291 549 766v2l-192 -21q-80 -8 -193 -26l-141 -23q-47 -8 -51 -8q-37 0 -37 35q0 74 43 94q82 37 255 63.5t388 26.5h37q12 0 37 -12q4 -4 12 -13q49 -57 49 -79v-7q0 -4 -1 -7t-6 -12t-13 -17l-19 -19q-276 -367 -448 -612q-158 -225 -373 -545 q-8 -6 -21 -6q-4 -2 -10 -2h-12q-55 0 -68 47v6q-2 4 -2 6z" />
<glyph unicode="8" horiz-adv-x="1013" d="M0 233q0 82 107.5 194t291.5 212v2q-127 74 -127 184q0 137 136 281q74 78 170 122t186 44q78 0 135 -36t82 -110q20 -33 26.5 -59.5t6.5 -46.5q0 -74 -78 -154q-84 -86 -262 -204q98 -33 155.5 -100.5t57.5 -149.5q0 -59 -45 -131q-35 -53 -127 -131q-119 -98 -228 -142 q-117 -45 -204 -45q-111 0 -197 81t-86 189zM139 180q0 -37 34 -64.5t93 -27.5q102 0 211 64q141 84 217 178q47 59 47 104q0 47 -45 82t-153 68v2q-186 -119 -295 -227.5t-109 -178.5zM428 850q0 -18 8 -31q2 -12 21 -33q25 -29 80 -63v2q160 92 252 182t92 146 q0 35 -33 65.5t-80 30.5q-76 0 -170 -70q-68 -49 -106 -98q-18 -25 -35 -47q-29 -49 -29 -84z" />
<glyph unicode="9" horiz-adv-x="1013" d="M129 631q0 82 64 225q88 199 231 334q70 66 129 84q29 8 57 8q47 0 95.5 -17.5t115.5 -62.5q86 -51 119 -106q41 -68 41 -146q0 -119 -63 -245q-199 -397 -478 -670q-18 -18 -67 -53q-31 -16 -74 -17q-37 0 -52.5 6t-15.5 23q0 -4 127 137q121 135 232 309v2 q-117 -51 -184 -51q-109 0 -193 67.5t-84 172.5zM272 625q0 -74 86 -93q27 -6 66 -6q86 0 184 35q35 12 74 27v2q72 115 115 221q39 98 39 174t-31 125t-78 49q-61 0 -162 -72q-43 -33 -112 -106q-84 -90 -132.5 -190.5t-48.5 -165.5z" />
<glyph unicode=":" horiz-adv-x="507" d="M72 39q0 51 43 90t94 39q35 0 49 -16.5t14 -42.5q0 -47 -39 -95q-44 -45 -69 -45q-51 0 -71.5 16.5t-20.5 53.5zM174 549q0 82 94 119q25 10 58 10q23 0 39 -18.5t16 -45.5q0 -39 -51 -86q-35 -31 -66 -41q-12 -6 -33 -6v2q-25 -4 -41 14.5t-16 51.5z" />
<glyph unicode=";" horiz-adv-x="507" d="M10 -82q0 10 21 55q8 16 61 107q68 113 107 113q55 0 55 -35q0 -16 -8 -25l-4 -4q-4 -4 -6.5 -5t-20.5 -13v2q-18 -27 -53 -80q-25 -45 -80 -129q-6 -6 -11 -10.5t-22 -4.5q-39 0 -39 29zM186 575q0 39 38 79t79 40q39 0 56.5 -17.5t17.5 -55.5q0 -63 -80 -95 q-23 -8 -47 -8v2q-23 -4 -47 12q-16 16 -17 43z" />
<glyph unicode="&#x3c;" horiz-adv-x="1705" d="M262 557v105l1180 483v-127l-1002 -410l1002 -403v-129z" />
<glyph unicode="=" horiz-adv-x="1705" d="M254 358v117h1196v-117h-1196zM254 741v117h1196v-117h-1196z" />
<glyph unicode="&#x3e;" horiz-adv-x="1705" d="M262 76v129l1002 403l-1002 410v127l1180 -483v-105z" />
<glyph unicode="?" horiz-adv-x="972" d="M168 39q0 51 50 103.5t106 52.5q29 0 53 -25t24 -53q0 -49 -49 -99q-59 -45 -106 -45q-39 0 -58.5 17.5t-19.5 48.5zM227 979q0 43 58 104q117 121 229 197q78 51 125 51q82 0 127 -96v2q86 -43 121 -80q51 -51 51 -129q0 -123 -285 -461q-74 -88 -135 -161l-102 -127 q-25 -8 -23 -9q-12 -4 -33 -4q-20 0 -45 8q-12 8 -12 27q0 33 127 203q35 47 107 141q8 14 34 51q197 276 197 379q0 43 -21.5 66.5t-62.5 23.5q-80 0 -188.5 -76.5t-198.5 -197.5q-37 23 -53.5 46.5t-16.5 41.5z" />
<glyph unicode="@" horiz-adv-x="2048" d="M113 518q0 244 112 451q98 178 272.5 302t379.5 163q113 20 237 20q166 0 311 -43q139 -41 248 -125q133 -102 197.5 -231t64.5 -281q0 -172 -61 -307q-72 -156 -199 -250q-133 -98 -297 -98q-197 0 -196 153v17l2 2v4q-109 -176 -297 -176q-154 0 -235 85t-81 247 q0 231 137.5 388.5t331.5 157.5q94 0 157 -39.5t93 -115.5v2l60 121h108l-139 -570q0 -8 -3 -17t-7 -28q-2 -10 -2 -18v-19q0 -47 26 -65q29 -25 82 -25q68 0 156 53q119 72 188 232q49 115 49 256q0 266 -194.5 428t-517.5 162q-334 0 -574 -205q-141 -121 -210.5 -282.5 t-69.5 -356.5q0 -172 59 -302t186 -226q117 -88 240 -125q141 -43 297 -43q350 0 631 186l45 -66q-307 -221 -662 -221q-289 0 -493 105q-150 76 -263.5 207t-150.5 309q-18 86 -18 184zM713 442q0 -109 52 -169t142 -60q100 0 182 69.5t111 186.5v2l62 244 q-35 186 -207 186q-119 0 -205 -84q-76 -74 -113 -194q-25 -82 -24 -181z" />
<glyph unicode="A" horiz-adv-x="919" d="M-74 0q0 59 131 346q119 260 338 633l2 2q170 293 285 293q20 0 49 -10q41 -16 47 -19q33 -8 45.5 -18t16.5 -31q0 -14 -19 -45q-33 -53 -49 -168q-49 -334 -49 -770v-35q0 -20 2 -41v-51q0 -78 -78 -78q-63 0 -67 236v20v19q-2 8 -2 16v14q-102 -8 -209 -24l-107 -17 q-55 -8 -110 -18q-27 -66 -54 -133q-35 -84 -67.5 -122t-69.5 -38q-8 0 -33 25q0 2 -2 8v6zM229 416q33 2 174 10q106 8 175 8q16 438 61 696q-156 -229 -410 -714z" />
<glyph unicode="B" horiz-adv-x="946" d="M6 88q0 51 62 279q84 322 229 710v2q-2 0 -2 2v4v2v25q0 98 139 123q45 8 109 8q152 0 256 -61q57 -35 110 -109q57 -80 58 -141q0 -80 -104.5 -163t-276.5 -151q106 -8 179 -76.5t73 -156.5t-86 -174l-17 -16q-51 -51 -145 -105q-211 -121 -414 -121q-72 0 -121 36 t-49 83zM135 96q10 -10 30.5 -17t47.5 -7q78 0 190 57q72 37 156 100q102 76 127 127q12 16 16 33q6 10 7 31q0 49 -52.5 74.5t-160.5 25.5q-123 0 -197 -16q-10 0 -39 -6l-12 -33q-41 -111 -84 -264zM309 639q242 53 386.5 156.5t144.5 212.5q0 45 -35 63.5t-123 18.5 q-121 0 -227 -27l-21 -53q-51 -133 -92 -267z" />
<glyph unicode="C" horiz-adv-x="899" d="M10 285q0 127 82 329q78 193 223 412q82 123 160 197q69 65 125 65h2q37 0 71 -12t77 -43v2q170 -63 170 -172q0 -33 -23 -63.5t-55 -30.5q-25 0 -39.5 20.5t-22.5 83.5q-4 25 -26.5 42.5t-61.5 17.5q-61 0 -134 -55.5t-159 -166.5q-100 -129 -166 -297 q-73 -180 -73 -329q0 -106 49 -161.5t133 -55.5q115 0 254 86q43 31 131 88q18 10 29 10h4v-2q8 0 11 -6t3 -23q0 -20 -26 -53q-123 -152 -310 -193q-37 -8 -67 -8q-168 0 -264.5 86t-96.5 232z" />
<glyph unicode="D" horiz-adv-x="1052" d="M27 57q0 92 83 408.5t216 660.5v2q-4 12 -15 37q-2 14 -3 20.5t-1 10.5q0 41 27.5 53.5t120.5 12.5q268 0 418.5 -124t150.5 -343q0 -211 -188 -424q-199 -223 -439 -336q-145 -68 -252 -68q-55 0 -88 25q-31 18 -30 65zM172 78q256 63 477 297q115 121 181.5 248 t66.5 235q0 238 -324 238h-10q-4 -2 -8 -2h-10q-18 0 -68 -7v3q-119 -319 -194 -576q-74 -244 -111 -436z" />
<glyph unicode="E" horiz-adv-x="929" d="M14 74q0 16 68 274q33 125 88 324l129 469q23 80 49.5 94t161.5 14q66 0 219 -16l238 -25q18 0 25 -5t7 -17q0 -53 -245 -72l-166 -12q-78 -6 -133 -15q-68 -197 -119 -380l-43 -160l123 12q145 12 276 12q59 0 82 -9t23 -36q0 -29 -11.5 -42t-37.5 -17q-152 -8 -330 -33 l-162 -22v2q-18 -55 -51 -168q-20 -80 -35 -121q111 14 197 25l143 14q119 12 164 12q76 0 92 -20q6 -8 6 -19q0 -35 -96 -53q-8 -2 -10 -2h-11q-86 -14 -309 -70q-172 -43 -227 -43q-41 0 -73 32t-32 73z" />
<glyph unicode="F" horiz-adv-x="806" d="M2 0q0 16 27 131q43 190 145 541q70 242 123 397q23 66 37 94q8 29 77.5 37t354.5 8q150 0 184.5 -15t34.5 -56q0 -37 -47 -37h-8q-8 0 -19 2h-10q-4 0 -10 2h-14q-55 0 -256 -31q-20 -4 -166 -22q-84 -258 -127 -420q-14 -55 -25 -103h45q6 0 94 7h25q176 0 176 -62 q0 -59 -201 -67q-111 -4 -178 -13v2q-49 -164 -74 -274q-33 -152 -32 -144q-8 -18 -26.5 -25t-53.5 -7q-76 0 -76 55z" />
<glyph unicode="G" horiz-adv-x="946" d="M-2 221q0 223 127 488q78 166 203 313q113 137 233 213q45 29 72 29q18 0 53 -20.5t88 -65.5q66 -37 114 -101.5t48 -97.5q0 -10 -8 -22.5t-13 -12.5l-6 -2q-2 -2 -6 -2q-18 0 -75.5 82t-106.5 82q-45 0 -107 -39q-147 -92 -266 -277q-66 -98 -115 -202 q-98 -205 -98 -361q0 -119 66 -143q23 -8 55 -8q141 0 272 88q139 94 215 237l-2 2h-2q-29 4 -47 5q-41 0 -108 -13q-90 -16 -107 -18q-35 -4 -57 -4q-45 0 -70.5 19.5t-25.5 49.5q0 12 29.5 27.5t90.5 30.5q117 26 258 26h11q96 0 125.5 -25.5t29.5 -95.5q0 -35 -47 -110 q-41 -66 -127 -150q-94 -92 -186 -133t-193 -41q-37 0 -141 35q-111 57 -143.5 98t-32.5 119z" />
<glyph unicode="H" horiz-adv-x="1021" d="M0 -4q0 43 80 343t199 650q23 66 24 74q16 41 39 67q27 35 59 35q35 0 68 -14q41 -18 41 -49q0 -16 -27 -45q-18 -20 -41 -53q-29 -57 -108 -297q-33 -98 -62 -213q8 -2 17 -2h49q115 0 354 18l31 100q231 756 324 756h12q2 0 10 -2q78 -14 78 -53q0 -6 -4 -15.5 t-23 -27.5l-30 -31q-29 -41 -60 -119q-152 -383 -262 -938q-16 -82 -32.5 -102.5t-45.5 -20.5q-35 0 -59.5 24.5t-24.5 59.5q0 33 29 135q8 39 29 119q-76 -2 -277 -14q-31 -2 -88 -6l-72 -10v2q-35 -113 -71 -293q-29 -139 -76 -140q-80 0 -80 62z" />
<glyph unicode="I" horiz-adv-x="468" d="M4 49q0 39 72 289q63 225 184 598q6 16 16 45q100 293 179 293q25 0 71 -47q8 -12 9 -25q0 -8 -31 -80q-203 -473 -346 -1069v-16v-2v-4q0 -4 2 -6v-11q0 -20 -29 -26q-10 -2 -22 -2q-104 0 -105 63z" />
<glyph unicode="J" horiz-adv-x="770" d="M-115 174q0 18 17.5 43t36.5 31q10 6 26 6q29 0 39 -41q4 -16 6 -39q59 -88 185 -88q139 0 294 614l64 252q20 94 72 250q31 63 100 64q61 0 78 -33q6 -10 6 -19q0 -4 -21 -51q-10 -23 -30 -92q-45 -147 -133 -444q-33 -121 -66 -240q-45 -145 -100 -225 q-133 -195 -299 -195q-66 0 -119 33q-8 4 -27 14q-25 31 -77 88l-3 2q2 0 0 2q-49 49 -49 68z" />
<glyph unicode="K" horiz-adv-x="860" d="M0 -2v8q0 53 76 328q29 102 96 334l125 426v2q-2 2 -2 6v4v2q0 61 28.5 96t75.5 35q35 0 59.5 -16.5t24.5 -38.5q0 -27 -59 -201q-55 -162 -107 -330v2q143 143 248 238q92 82 170 149l217 185q45 39 76 47q10 2 19 2q14 0 23 -11.5t9 -29.5t-8 -28.5t-31 -18.5 q-86 -74 -221 -203q-199 -190 -436 -424q162 -162 261 -307t99 -207q0 -33 -32 -59q-10 -10 -33 -23l-16 -4q-8 -2 -17 -2h-8q-10 0 -12 8l-2 2q-2 2 -2 4v4q0 -2 6 17l6 6v4q0 35 -330 422l-24 29q-10 12 -19 20q-29 -104 -86 -315l-31 -119q-10 -39 -12 -41 q-4 -16 -31 -31q-18 -10 -53 -10q-27 0 -37 14q-10 6 -10 25z" />
<glyph unicode="L" horiz-adv-x="749" d="M8 68q0 53 86 364q66 236 99 348q61 195 118 342q2 4 4 13q41 114 104 114h1q61 0 96 -13t35 -38q0 -18 -31 -61l-2 -2q-147 -340 -231 -586q-92 -264 -125 -428v2q315 45 407 45q55 0 80 -14.5t25 -40.5q0 -31 -70 -39q-53 -6 -57 -6q-92 -12 -299 -58 q-154 -33 -170 -33q-70 0 -70 91z" />
<glyph unicode="M" horiz-adv-x="1189" d="M-70 31q0 35 97 293q66 176 260 604q27 66 55 131q35 82 73 122t83 40q80 0 114 -25q8 -8 9 -18q0 2 -13 -35q-115 -344 -143 -840q225 440 383 686q168 260 223 260q76 0 128 -16t52 -41v-6q0 -4 -4 -8t-8 -13v-2l-4 -4q-190 -389 -313 -960q-10 -68 -39 -172 q-16 -27 -37 -27q-31 0 -47.5 18.5t-16.5 57.5q0 139 82 426q80 279 221 645q-94 -113 -217 -313q-131 -211 -270 -478q-27 -59 -92 -157q-27 -31 -49 -31q-41 0 -72 20q-37 23 -37 62q0 137 37 380.5t98 485.5v2q-180 -383 -315 -764q-139 -387 -164 -387q-12 0 -24.5 5 t-24.5 18q-25 16 -25 41z" />
<glyph unicode="N" horiz-adv-x="976" d="M-4 0q0 23 12 100l23 86q8 31 26 101q61 221 154 479q84 236 137 354q43 96 193 97q31 0 43 -7q2 -2 8 -6t6 -12q0 -10 -6 -27.5t-21 -44.5q-26 -111 -26 -257v-11q0 -317 61 -625q39 170 99 361q45 129 137 403l8 25q27 82 39 110q25 63 55.5 107.5t63.5 44.5 q18 0 30.5 -6t12.5 -23q0 -6 -9 -22l-20 -41q-98 -268 -195 -572q-74 -229 -120 -438q-2 -2 -7 -22q-25 -117 -104 -117q-20 0 -50 23.5t-48 54.5q-31 49 -60 254q-30 206 -30 428v14v43v47q0 12 4 57q2 35 2 56v2q-96 -264 -187 -557q-53 -170 -121 -459q-12 -53 -26 -53 q-27 0 -60 18q-25 14 -24 35z" />
<glyph unicode="O" horiz-adv-x="1101" d="M88 627q55 150 166 303t235.5 251.5t202.5 98.5q39 0 64 -14q16 -6 69 -49v2q240 -41 240 -338q0 -172 -63.5 -362.5t-167.5 -325.5q-182 -233 -400 -234q-68 0 -164 33q-235 80 -235 352q0 141 53 283zM174 313v2q0 -117 56.5 -183t160.5 -66q100 0 199 67 q152 104 246 326q102 240 102 452q0 168 -92 215q-31 14 -72 15q-82 0 -147 -47q-78 -45 -156 -136q-121 -139 -201 -299q-96 -193 -96 -346z" />
<glyph unicode="P" horiz-adv-x="860" d="M10 20q0 51 89 396.5t223 773.5v12q0 51 45 68q25 8 88 8q217 0 348 -86t131 -225q0 -176 -187.5 -322.5t-480.5 -195.5v2l-30 -121q-8 -31 -27 -109l-23 -92q-8 -49 -24 -117q-6 -14 -15 -20q-14 -18 -47 -19q-23 0 -53 13q-37 14 -37 34zM299 567v2q203 29 355.5 159 t152.5 257q0 59 -68.5 99t-177.5 40h-24q-10 0 -21.5 -1t-20 -4t-26.5 -9q-47 -125 -94 -281l-39 -133q-20 -66 -37 -129z" />
<glyph unicode="Q" horiz-adv-x="1069" d="M25 319q0 178 102 395.5t283 424.5q132 153 228 153h1h16q10 -2 17 -2l33 -8q37 -14 65 -39q201 -12 248 -223q14 -70 14 -162q0 -217 -92 -420q-96 -213 -262 -340q63 -63 110 -116q29 -33 29 -54q0 -27 -21.5 -61.5t-47.5 -34.5q-2 0 -49.5 69.5t-125.5 129.5v2 q-66 -37 -176 -53q-29 -4 -57 -5q-135 0 -225 96.5t-90 247.5zM162 279q0 -102 39 -153.5t116 -51.5h25l25 4q18 2 61 16q18 8 35 17v2q-29 16 -74 53q-57 45 -57 61q0 14 9 21.5t28 7.5q66 0 149 -51q27 -16 55 -37q147 119 237.5 323.5t90.5 432.5q0 119 -31.5 170 t-101.5 51q-80 0 -147.5 -38t-147.5 -128q-133 -152 -222 -356.5t-89 -343.5z" />
<glyph unicode="R" horiz-adv-x="929" d="M18 82q0 20 23 125q8 37 29 112l30 121q29 106 80 277l70 237q29 98 98 287q14 35 58 51q53 14 129 15q170 0 305 -113t135 -233q0 -150 -166 -271q-172 -125 -444 -180q139 -154 260 -250l102 -80l33 -26q0 -35 -43 -60q-8 -4 -17 -8q-25 -6 -28 -6q-47 0 -160 86 q-96 74 -268 246v2q-6 -16 -64 -248q-16 -61 -35 -131q0 -27 -12 -37t-33 -10q-23 0 -53 26q-10 12 -24 45q-4 10 -5 23zM305 598v2q203 4 361.5 122t158.5 249q0 82 -86 139t-204 57h-25q-16 -2 -20.5 -3t-6.5 -1q-123 -336 -178 -565z" />
<glyph unicode="S" horiz-adv-x="817" d="M-66 258q0 12 11 33l4 8q6 12 26 25q12 6 25 6q12 0 29 -37q53 -117 133 -161t178 -44q102 0 127 80q-18 66 -94 141q-49 43 -137 135q-70 82 -70 197q0 158 110 334q68 106 152 190q100 100 156 101h4q20 -8 20 -9l6 3q51 -4 78 -25q37 -27 86 -102v2q119 -76 140 -121 q6 -18 6 -37q0 -25 -37 -43l-10 -6q-12 -4 -25 -4q-18 0 -33 12q-4 2 -16 16q-29 33 -49 80q-4 4 -4 10q-16 51 -64 52q-51 0 -111.5 -43t-119.5 -119q-88 -117 -115 -248q-8 -43 -8 -84q0 -70 42 -145.5t118 -145.5q43 -33 116 -110q23 -33 23 -62q0 -76 -82 -124t-197 -48 q-166 0 -292 97.5t-126 195.5z" />
<glyph unicode="T" horiz-adv-x="866" d="M174 1135q0 31 186 57q199 29 449 29q188 0 221 -39q12 -14 12 -35q0 -18 -6 -35v-2v-2l-2 -2l-108 -4q-125 -4 -256 -21q-57 -164 -107 -315l-96 -293q-84 -258 -131 -428q-8 -33 -25 -63q-4 -6 -12 -17q-14 -18 -45 -18q-33 0 -53.5 18.5t-20.5 40.5q0 45 86 338 q100 344 223 725v2q-74 -8 -158.5 -14t-90.5 -6q-66 0 -66 84z" />
<glyph unicode="U" horiz-adv-x="1019" d="M74 225q0 115 65 348q61 219 174 480q8 8 13 26q66 152 135 152q31 0 61.5 -20.5t30.5 -49.5q0 -14 -8 -26l-10 -11q-2 -2 -8.5 -6t-8.5 -6q-154 -342 -221 -561q-78 -250 -78 -395q0 -109 60 -109q29 0 75.5 33t106.5 100q145 164 194 314l93 272q29 88 69 207l84 237 q10 29 35 54q25 14 51 14q57 0 96 -21q33 -16 33 -53q0 -20 -6 -33l-10 -10l-19 -12q-143 -303 -241 -610q-90 -283 -90 -406q0 -41 8 -78v-4q0 -4 2 -4v-2v-2q0 -8 -8 -16l-4 -4q-2 -2 -7 -5q-8 -8 -18 -12t-16 -4q-39 0 -62 47q-20 41 -20 125v33q0 6 2 18.5t2 18.5v2 q-80 -135 -167 -208t-157 -73q-102 0 -166.5 68.5t-64.5 191.5z" />
<glyph unicode="V" horiz-adv-x="843" d="M133 197v100q0 283 51 600q14 111 54 274q16 39 55 39q29 0 72 -27.5t43 -52.5q0 -14 -21 -92q-96 -369 -96 -743v-88q2 -29 6 -86v2q170 348 330 622q174 301 305 465q6 8 18 27q45 66 97 66q31 0 43 -5.5t12 -17.5q0 -29 -58 -100q-66 -82 -186 -285 q-250 -446 -510 -899l-14 -6q-10 -4 -35 -13q-10 -4 -20 -6l-21 -4q-6 0 -20 -2h-21q-43 0 -65 37q-18 51 -19 195z" />
<glyph unicode="W" horiz-adv-x="1212" d="M84 78q0 92 33 352q18 147 51 344q20 135 55 279q14 59 21 73q16 47 41 62q4 2 30 16q12 4 29 4q25 0 36 -14t11 -35q0 -49 -26 -166q-20 -84 -41 -168q-70 -324 -117 -645q164 389 305 626.5t205 237.5q14 0 39 -16q39 -8 39 -49q0 -10 -13 -76q-51 -268 -51 -553v-28 q0 -14 2 -29v-29q0 -27 0 -26l6 -105q180 485 332 807q39 88 107 221q53 106 118 107q61 0 62 -33q0 -10 -58 -125q-246 -492 -444 -1024q-4 -4 -4 -16q-41 -111 -127 -111q-72 0 -93.5 93t-21.5 360q0 162 19 325l12 109q-121 -219 -182 -348q-94 -197 -193 -422 q-14 -47 -41 -68q-12 -12 -51 -12q-90 0 -90 82z" />
<glyph unicode="X" horiz-adv-x="843" d="M-66 -12q0 37 349 501l43 58q-53 176 -86 327.5t-33 194.5q0 72 63 72h2h2q2 -2 5 -2h10h2q2 0 4 2q12 6 20 6q47 0 64 -10q10 -10 14 -50q33 -260 64 -389l186 232q250 311 350 311q25 0 39 -27q0 -2 2 -6v-8q0 -10 -10 -20l-10 -11l-19 -12q-119 -135 -346 -414 l-80 -104q-27 -33 -77 -102q55 -233 104 -361q43 -111 92 -145q-10 -29 -29 -33q-16 -12 -45 -12q-70 0 -122 90q-57 98 -127 330q-111 -143 -223.5 -316.5t-141.5 -173.5q-33 0 -49.5 18.5t-16.5 53.5z" />
<glyph unicode="Y" horiz-adv-x="806" d="M178 70q0 39 35 170q12 47 43 139l49 156q-49 213 -78 376q-26 147 -26 239v7q0 80 80 80q68 0 94 -266q23 -223 39 -338v2q221 334 358 504q156 190 201 190q23 0 37 -16.5t14 -40.5q0 -10 -123 -164q-135 -168 -223 -289l-45 -57q-135 -172 -193 -324 q-45 -117 -94 -321q-35 -139 -80 -140q-27 0 -61 25q-27 31 -27 68z" />
<glyph unicode="Z" horiz-adv-x="907" d="M-55 47q0 66 149 240v4l309 344q203 229 336 354q61 59 113 103q-293 -16 -592 -91q-49 -12 -51 -12q-18 0 -41 22.5t-23 41.5q0 12 9 16q12 12 22 14q344 154 731 154q61 0 97 -23q45 -18 45 -49q0 -33 -29 -58.5t-55 -47.5q-215 -215 -435 -469q-207 -240 -374 -477v2 q188 29 315 37q49 2 94 2q53 0 78 -18.5t25 -61.5q0 -29 -16.5 -38t-69 -11t-252.5 -25q-141 -16 -322 -49q-33 29 -48 47t-15 49z" />
<glyph unicode="[" horiz-adv-x="604" d="M84 -209q0 66 18 193q0 12 13 82q70 408 137 677q41 166 61 236q39 131 82 227q16 39 68 58q43 16 143 16q63 0 69.5 -8t6.5 -15q0 -20 -86 -40q-27 -6 -78 -19q-125 -436 -208.5 -817t-106.5 -621q14 -2 45 -6h8q4 0 8 -2h29q4 2 10 2h49q23 0 31 -6t8 -14 q0 -27 -51 -41.5t-139 -14.5q-90 0 -109 62q-8 23 -8 51z" />
<glyph unicode="\" horiz-adv-x="468" d="M133 1243q0 18 15.5 35.5t31.5 17.5q27 0 46.5 -17t27.5 -50q14 -57 25 -139q27 -236 51 -664q14 -254 14 -510q0 -55 -10 -76q-14 -29 -64 -28q-37 0 -43 45q-6 27 -6 47l-18 516q-4 72 -10 205l-11 170q-14 264 -41 430v2q-2 0 -2 2l-4 8q-2 4 -2 6z" />
<glyph unicode="]" horiz-adv-x="604" d="M-84 -297q0 23 84 41q25 4 76 16q129 449 210 818.5t105 619.5v2q-10 0 -30.5 3t-30.5 3h-29q-10 0 -22 -2h-23q-4 -2 -8 -2h-6q-37 0 -37 27q0 20 51 34.5t139 14.5q117 0 117 -113q0 18 -10 -110q-4 -49 -23 -162q-68 -410 -139 -694q-76 -301 -139 -449 q-14 -33 -65.5 -52.5t-143.5 -19.5q-47 0 -61.5 5.5t-14.5 19.5z" />
<glyph unicode="^" horiz-adv-x="2048" d="M422 899l518 557h164l518 -557h-158l-440 438l-442 -438h-160z" />
<glyph unicode="_" d="M0 -365h1024v-116h-1024v116z" />
<glyph unicode="`" d="M367 936v2v6q0 2 3 4t7 2h6l94 2q6 -2 15.5 -7t13.5 -21l2 -4q20 -92 72 -168l6 -7v-2q0 -2 2 -2v-2q0 -2 2 -4v-4v-2l-4 -4h-2h-4q-2 -2 -5 -2h-4l-43 2q-4 -2 -8 0q-6 2 -10 4l-6 8q-4 2 -8 8l-4 9q-8 8 -51.5 65.5t-65.5 102.5l-6 12q-2 0 -2 2z" />
<glyph unicode="a" horiz-adv-x="536" d="M-115 84q0 106 60 240q20 43 49 88q33 74 106 143q57 53 111 53q29 0 49 -14q8 -6 20.5 -16.5t24.5 -26.5h6q4 2 6 2q12 4 19.5 5t13.5 1h10q82 0 82 -51q0 -12 -26 -70q-76 -141 -113 -284q-6 -25 -6 -39t4 -23q12 -6 14 -6q14 0 43 31q57 61 107 143q6 10 14 23 q23 27 27 26q6 0 10 -2t10 -12q10 -16 11.5 -19.5t1.5 -5.5v-6q0 -12 -33 -71q-27 -49 -80 -115q-16 -23 -64 -68q-25 -14 -63 -14q-47 0 -68.5 27.5t-21.5 89.5v32q0 4 2 7v2q-78 -137 -168 -177q-29 -12 -53 -12q-49 0 -77 35t-28 84zM-8 70q0 -23 8 -23q0 -2 2 -2 q18 0 57 37q63 59 129 180q55 100 78 168q8 27 8 37v2q0 16 -7 23.5t-21 7.5q-31 0 -78 -47q-59 -59 -125 -203q-35 -74 -47 -135q-4 -29 -4 -45z" />
<glyph unicode="b" horiz-adv-x="540" d="M-84 47q0 61 68 313q63 240 172 533q37 102 63 151q18 37 41 37h8q2 0 7.5 -1t10.5 -6t15 -11l14 -14q31 -14 31 -29q0 -12 -20 -33q-10 -8 -17 -14l-12 -12q-23 -23 -80 -181q-66 -182 -102 -331v2q123 147 217 147q78 0 96 -92q6 -31 6 -72q0 -84 -37 -182 q-68 -180 -141 -240q-43 -35 -94 -51q-43 -6 -51 -6q-20 0 -58 10q-18 8 -53 37q-35 4 -45 8q-31 6 -37 21q-2 8 -2 16zM18 88q0 -33 19.5 -52.5t46.5 -19.5q35 0 66 25q4 2 10 8l10 10q16 16 41 58q84 141 119 280q8 37 8 64q0 14 -10 35q-4 14 -21 14v2q-31 -4 -74 -41 q-133 -109 -186 -240q-29 -70 -29 -143z" />
<glyph unicode="c" horiz-adv-x="450" d="M-72 121q0 102 62 258q90 229 182 252q18 8 53 8h15q10 -2 14 -3t14 -3q20 -6 41 -23q35 -4 53.5 -32.5t18.5 -71.5q0 -55 -29 -129q-37 -88 -84 -88q-18 0 -36.5 16.5t-18.5 34.5q0 33 23 100q12 37 28 101v2l-8 2q-12 -4 -29 -13q-18 -14 -28 -28q-113 -139 -154 -326 q-12 -51 -12 -92q0 -49 14 -68.5t49 -19.5q80 0 172 88q72 70 125 162q29 49 33 49q23 0 31 -12q2 -4 4 -6l4 -7v-6q0 -16 -19 -53q-39 -88 -112 -164q-63 -66 -148 -92q-39 -12 -77 -12q-86 0 -129 47q-51 39 -52 129z" />
<glyph unicode="d" horiz-adv-x="520" d="M-94 76q0 96 55 213q63 133 139 213q12 10 25 20l20 15q20 12 39 12q23 0 50.5 -14.5t60.5 -42.5q39 121 80 241q47 139 94 234q35 73 54 73h1q35 0 55.5 -14t20.5 -33q0 -16 -37 -98l-22 -49q-6 -14 -19 -39q-102 -238 -153 -420q-57 -203 -58 -278q0 -18 6.5 -29.5 t16.5 -11.5q16 0 41 26q57 61 96 139q14 31 29 31h4q8 -8 8 -4q6 -4 6 -12q0 -6 -10 -41q-39 -90 -78 -148q-23 -31 -41 -49q-43 -33 -82 -33q-66 0 -86 72q-10 29 -10 53v2q-39 -82 -98 -143q-51 -53 -97 -53q-45 0 -77.5 49t-32.5 119zM0 39q0 -16 8 -33l4 -4q4 -4 21 -4 q45 0 112 121q76 135 134 323v2q-4 2 -12.5 11.5t-12.5 11.5h-6h-10q-27 0 -56 -31q-39 -41 -78 -102q-104 -164 -104 -295z" />
<glyph unicode="e" horiz-adv-x="407" d="M-82 139q0 143 94 350q43 94 84 136q14 14 25 20q23 18 49 19q16 0 29.5 -6.5t27.5 -16.5q12 -2 35 -8q61 -16 62 -74q0 -119 -71 -227.5t-149 -108.5q2 0 -30 8q-16 8 -31 23v2q-10 -84 -12 -84v2v-31q0 -114 58 -114h1q55 0 135 71.5t131 173.5q2 2 15 27q20 41 30 41 h7q2 0 6 -1t11 -11.5t7 -26.5q0 -25 -22 -65q-92 -168 -203 -234q-66 -39 -137 -39q-68 0 -110 44t-42 130zM87 304q9 -15 30 -15v2h3q31 0 62 69q23 49 29 109q2 18 2 37v6q0 2 -1 6t-5 8l-2 4q-8 6 -17 7q-16 0 -41 -31q-69 -85 -69 -156q0 -31 9 -46z" />
<glyph unicode="f" horiz-adv-x="378" d="M-25 14q0 16 7 54l18 86q25 86 80 256l-6 2q-10 -1 -18 -1q-45 0 -54 27q-4 8 -4 19q0 25 59 39q20 4 52 8q84 326 215 538q127 207 231 207q27 0 45 -32q6 -12 12 -29q20 -23 60 -70q10 -16 10 -22q0 -18 -17.5 -29.5t-31.5 -11.5q-18 0 -38 29.5t-44 29.5 q-57 0 -135 -141q-35 -63 -183 -430l-12 -31q2 -2 4 -2h4q2 -2 7 -2h22q84 0 98 -23q4 -10 4 -24q0 -47 -67 -51q-38 -3 -61 -3q-11 0 -19 1l-25 2q-51 -156 -77 -312q-20 -123 -84 -123q-25 0 -38.5 10.5t-13.5 28.5z" />
<glyph unicode="g" horiz-adv-x="501" d="M-225 -348q0 18 8 28.5t20 10.5q6 0 27 -21l8 -16l12 -4q6 -2 12.5 -4t25 -6.5t44.5 -4.5q102 0 158 64q18 37 41 131q25 102 66 297v2q-37 -51 -52 -70q-35 -43 -61 -61q-41 -39 -84 -39t-78 39q-31 27 -31 96q0 80 46 197q49 125 108 203q55 72 98 84q14 4 29 4 q35 0 86 -35q16 -12 37 -29q16 2 37 8h14q37 0 55.5 -16t18.5 -43q0 -6 -19 -45q-72 -152 -129 -393q-18 -92 -57 -277q-29 -113 -115 -155q-68 -33 -151 -33q-78 0 -126 23.5t-48 64.5zM-37 68q4 -27 14.5 -39.5t22.5 -12.5t20 4q25 25 72 78q84 119 121 199q45 94 45 135 q0 47 -45 47q-27 0 -70 -47q-82 -90 -129 -199q-49 -117 -49 -167z" />
<glyph unicode="h" horiz-adv-x="501" d="M-113 0q0 57 76 289q92 281 195 520q6 18 20 55q104 248 172 248q16 0 25.5 -7t9.5 -24q0 -4 -37 -86q-209 -459 -354 -921q27 43 63 102l82 129q160 254 234 254q23 0 35 -14.5t12 -34.5q0 -33 -21 -68q-37 -78 -102 -235q-31 -82 -31 -121q0 -8 6 -20l7 -5q2 -4 6 -4 q23 0 55 41q59 59 102 146q25 37 35 37q8 0 22.5 -17.5t14.5 -27.5q0 -20 -36 -82t-113 -140q-16 -12 -33 -16q-23 -16 -68 -16q-41 0 -66.5 23.5t-25.5 76.5q0 51 27 147q8 35 20 78v2q-29 -51 -88 -153q-121 -207 -180 -207q-33 0 -48.5 15.5t-15.5 35.5z" />
<glyph unicode="i" horiz-adv-x="305" d="M-55 147q0 109 43 261l14 45q12 43 29 61q25 41 96 41q18 0 28.5 -6t10.5 -27q0 -2 -14 -41q-4 -14 -17 -41l-12 -34q-84 -238 -84 -293q0 -45 35 -45q25 0 73 49q43 43 99 131q6 12 16 31q18 33 27 32q8 0 22.5 -11t14.5 -28q0 -4 -35 -65q-10 -14 -29 -45 q-74 -143 -153 -170q-25 -8 -54 -8q-82 0 -104 94q-6 31 -6 69zM66 670q0 57 92 84q4 0 14 2h12q31 0 43.5 -14.5t12.5 -36.5q0 -37 -34 -67t-73 -30v2q-27 -4 -47 14.5t-20 45.5z" />
<glyph unicode="j" horiz-adv-x="215" d="M-549 -293q2 2 3 5t14 16q6 4 12 4q8 0 15 -11.5t18 -29.5q25 -18 51 -35q39 -23 90 -33q25 -6 51 -6q14 0 31 4q8 0 17 2t18 6h-2q45 45 120 379q23 98 45 197l37 153q6 25 6 27l5 16q8 43 43 123q23 35 55 35q29 0 43 -9t14 -32q0 -18 -18 -47l-10 -10 q-59 -209 -109 -457q-51 -254 -88 -317q-31 -51 -99.5 -95.5t-131.5 -44.5q-90 0 -160 49.5t-70 104.5v6zM33 662q0 37 31.5 64.5t68.5 27.5q39 0 54.5 -7.5t15.5 -31.5v2q0 -33 -33 -72t-78 -39q-20 0 -45 15q-14 14 -14 41z" />
<glyph unicode="k" horiz-adv-x="501" d="M-129 -14q0 18 45 161q12 39 37 115q88 309 149 504l39 123q16 49 29 82v8q33 84 86 84q20 0 43 -14.5t23 -34.5l-3 -2q-2 -2 -4 -6q-33 -37 -67 -121q-53 -131 -127 -377q-25 -78 -47 -168q29 27 86 78q184 162 229 162q37 0 49.5 -5.5t12.5 -15.5t-93 -86 q-76 -61 -170 -151q20 -135 47 -209t62 -74q23 0 53 37q27 31 109 166q0 4 4 8q12 27 29 31q8 0 19 -14.5t11 -22.5q0 -23 -30 -84q-100 -201 -234 -201q-49 0 -98 49q-41 53 -90 205l-45 -33q-23 -61 -41.5 -154.5t-55.5 -93.5q-25 0 -41 14.5t-16 39.5z" />
<glyph unicode="l" horiz-adv-x="407" d="M-45 276q0 14 35 21.5t51 28.5q111 424 264 835v8v5q-2 2 -2 4v4q0 25 35 49q8 6 45 20q4 0 12 2h11q72 0 118 -82q10 -20 11 -36q0 -57 -52 -193q-123 -328 -354 -670q0 -14 -5 -43.5t-5 -44.5v-22q0 -123 51 -123q29 0 63.5 35t120.5 182q23 41 29 41q14 0 29.5 -12.5 t15.5 -26.5v-4v-2l-2 -2v-2q-2 -2 -2 -4q-57 -115 -107 -189q-6 -8 -36 -45q-33 -25 -62 -39t-63 -14q-59 0 -101 49q-47 55 -47 123v12q0 6 2 13v24q0 8 2 22.5t2 20.5v2q-2 -2 -4 -2h-4q0 -2 -2 -2h-4l-2 -2q-16 0 -29.5 19.5t-13.5 39.5zM150 399v2q133 250 208 449 q82 217 82 270v13q0 4 -4 8t-12 4q-6 0 -14 -4h-2h-2q-121 -297 -207 -578q-27 -86 -49 -164z" />
<glyph unicode="m" horiz-adv-x="724" d="M-96 59q0 31 49 191q25 78 51 186q16 68 32.5 88.5t41.5 20.5q29 0 52.5 -24.5t23.5 -53.5q0 -10 -24 -38t-34 -47.5t-41 -117.5q-35 -113 -55 -211q125 240 205 355q72 100 106 100q23 0 33 -16.5t14 -45.5l-16 -26q-39 -115 -76 -303q127 242 206 359.5t114 117.5h6 q4 -2 7 -3t8 -7t22 -33q10 -10 16 -23q2 -2 2 -3t1 -3l3 -6v-6q0 -12 -4 -20.5t-31 -49.5q-74 -115 -104 -241q-8 -35 -8 -58q0 -14 7 -29.5t19 -15.5q27 0 50 29q31 57 96 149l8 17q25 51 29 51q14 0 30.5 -16.5t16.5 -30.5q0 -16 -21 -59q-8 -16 -24 -43l-31 -52 q-45 -74 -80 -102q-41 -35 -69 -35q2 0 -41 14q-12 8 -20.5 18.5t-20.5 22.5v2q-16 12 -24.5 35t-8.5 37q0 25 20 96q18 49 56 168l6 21q-14 -25 -99 -189q-59 -117 -110 -178q-39 -49 -66 -49q-61 0 -61 66q0 31 37 198l8 33q2 14 4 25q-47 -72 -127 -228 q-61 -121 -94 -121q-47 0 -70 23q-20 12 -20 61z" />
<glyph unicode="n" horiz-adv-x="524" d="M-82 68q0 57 31 180q35 141 80 250q27 65 72 65h1q63 0 64 -45q0 -4 -4 -10l-10 -21q-82 -164 -117 -366q63 125 207 366q74 109 112 109q33 0 60.5 -19.5t27.5 -52.5q0 -14 -10 -24l-8 -8l-14 -13q-6 -4 -7.5 -4t-19.5 -43q-6 -16 -18 -53l-13 -35q-16 -63 -43 -194 q-4 -25 -4 -41q0 -20 7 -33t16 -13q31 0 121 152q14 23 32 59q8 23 29 23q10 0 26.5 -12.5t16.5 -26.5t-47 -104q-66 -127 -123 -158q-12 -6 -23 -12q-25 -10 -43 -11q-45 0 -79 39q-27 39 -27 117q0 80 31 217v2q-55 -96 -119 -215q-77 -149 -122 -149h-1q-33 0 -57.5 20.5 t-24.5 63.5z" />
<glyph unicode="o" horiz-adv-x="471" d="M-82 106q0 61 33 162q45 139 117 224q31 37 61 49q14 6 29 6q45 0 59 -37v2q0 -2 2 -2l2 2h8q4 0 9 2h16q68 0 90 -92q6 -31 6 -68q43 12 74 46t61 67q12 12 21 12q33 0 33 -26q0 -20 -21 -50q-6 -10 -16 -20q-76 -109 -164 -125q-49 -164 -115.5 -238.5t-161.5 -74.5 q-63 0 -103 42t-40 119zM33 94v2q0 -35 8 -49t35 -14q51 0 113.5 114.5t62.5 227.5q0 20 -10 41q-10 14 -29 14q-51 0 -115.5 -115.5t-64.5 -220.5z" />
<glyph unicode="p" horiz-adv-x="501" d="M-193 -436q0 49 48 276q16 82 55 238l65 260q8 33 25 100q78 299 127 299h8q6 -2 10 -2l9 -4q4 -2 8 -6q14 -8 14 -29q0 -18 -24 -90q-27 -78 -43 -143v2l49 63q57 74 102 74q82 0 115 -110q8 -33 8 -74q0 -170 -85 -307.5t-183 -137.5q-33 0 -70 18.5t-45 47.5l-63 -307 q-25 -125 -25 -158q0 -14 8 -23l6 -10q2 -2 2 -4q0 -39 -43 -39q-78 0 -78 66zM29 117v2q4 -31 24.5 -49.5t40.5 -18.5q57 0 103 80q37 84 49 121q25 66 33 125q4 27 4 49q0 66 -31 66q-37 0 -105.5 -110t-117.5 -265z" />
<glyph unicode="q" horiz-adv-x="550" d="M-82 133v8q0 78 59 195q66 131 164 239q25 29 35 34t31 5q18 0 33.5 -2t35.5 -12q39 -16 78 -47q8 4 15 6l12 4q6 2 12 2h8q25 0 48.5 -17.5t23.5 -39.5q0 -8 -12 -29q-31 -53 -101 -250q-115 -326 -165 -641h2q4 -4 8 -7t7 -7t3 -10q0 -14 -34 -32.5t-62 -18.5 q-20 0 -33 12q-10 6 -10 35q0 -2 6 34q0 2 2 3v2q10 92 37 204q20 86 96 326v2q-84 -115 -149 -133q-23 -6 -43 -6h-11q-6 2 -10 2l-8 4q-4 2 -10 4q-18 14 -31 43l-16 25q-4 4 -7 10l-4 12q-8 16 -8 33q-2 4 -2 8zM-2 109q2 -6 2 -9v-18l8 -4q4 -2 8 -2q45 0 88 41 q37 37 115 151q59 90 84 176q6 20 6 35q0 8 -2 19.5t-16 11.5q-2 2 -4 2h-6q-23 0 -66 -33q-53 -41 -139 -174q-57 -90 -70 -145q-6 -31 -6 -54z" />
<glyph unicode="r" horiz-adv-x="434" d="M-66 221q0 2 15 35q47 102 92 276v3q-16 6 -29 18q0 4 -4 10t-4 15q0 31 38 62.5t79 31.5q23 0 36 -12.5t13 -30.5v-11q0 -4 -8 -45l67 -18l4 4l3 6l10 10q10 16 24 23q8 2 17 6h10q29 0 51.5 -16.5t22.5 -36.5q0 -8 -11 -29q-12 -10 -32 -30q-129 -209 -129 -371 q0 -55 26 -55q16 0 41 18q53 41 117 168q8 20 31 61q8 10 14 11q16 0 27.5 -10.5t11.5 -24.5q0 -23 -18 -51q-16 -37 -48 -84q-37 -57 -47 -74q-33 -47 -57 -66q-40 -30 -89 -30h-3q-55 0 -90 30q-31 39 -31 99q0 96 47 231q16 47 37 98l-55 21q-98 -270 -152 -270h-4h-2 q-20 10 -21 28z" />
<glyph unicode="s" horiz-adv-x="339" d="M-195 31q0 4 5 10l16 20q174 242 244 570v14q0 2 2 4v2q0 25 10 41.5t35 16.5t61.5 -22.5t36.5 -39.5v-2q-2 -4 -6 -8q-82 -102 -82 -252q0 -74 30.5 -190.5t30.5 -159.5q0 -51 -29.5 -91t-66.5 -40t-96 51q-68 47 -102 59l-3 2q-2 -6 -16 -14q-37 -18 -43 -18 q-16 0 -21.5 8t-5.5 39zM-61 86q12 -6 27.5 -13t39.5 -20q37 -12 78 -24q0 16 -21 112q-12 61 -24 148q-43 -119 -98 -205z" />
<glyph unicode="t" horiz-adv-x="301" d="M-158 813q0 27 51.5 37t239.5 27q27 86 53 133q17 26 51 26h3q29 0 44 -10t15 -29l-2 -8q-4 -10 -14.5 -30.5t-26.5 -75.5q33 2 98 6h23q10 0 22 2h39q86 0 133 -14q37 -16 37 -50q0 -8 -10 -14t-53 -6q-23 0 -62 -2l-190 -14q-43 -4 -72 -9q-84 -231 -127 -397 q-49 -193 -49 -266q0 -61 37 -62q23 0 56.5 32t70.5 95q23 53 72 148q8 14 12 14q12 0 33 -10q14 -10 14 -29q0 -20 -37 -94q-90 -180 -164 -213q-41 -18 -84 -18q-76 0 -98 90q-6 29 -6 65q0 78 37 252q33 158 104 379v2q-12 -2 -94 -6q-8 0 -21 -2h-18h-27q-47 0 -65 12 q-25 16 -25 39z" />
<glyph unicode="u" horiz-adv-x="557" d="M-57 117q0 129 75 334q31 88 62 133q6 8 15 15t32 7q27 0 47.5 -18.5t20.5 -46.5v-4q0 -2 -2 -5v-4q-2 -2 -3.5 -4t-6.5 -8t-7 -8q-59 -123 -95 -230.5t-36 -164.5q0 -18 8 -43q6 -14 29 -15q41 0 98 111q49 96 146 348q4 39 22.5 59.5t42.5 20.5q27 0 52.5 -19.5 t25.5 -46.5q0 -4 -23 -51q-106 -223 -106 -377q0 -23 6 -39t10 -16q33 0 70 51q31 43 86 158q0 8 4 12q12 31 31 31q12 0 28.5 -12.5t16.5 -26.5q0 -6 -14 -43q-47 -106 -95 -164q-31 -45 -65 -61q-33 -23 -74 -23q-43 0 -78 39t-35 105q2 4 2 10v12q2 12 7 35v2 q-70 -143 -138 -174q-25 -10 -47 -10q-41 0 -59 18q-8 4 -16 16q-37 37 -37 97z" />
<glyph unicode="v" horiz-adv-x="434" d="M-43 115q0 182 35 323q33 133 78 133q23 0 54.5 -19.5t31.5 -39.5q0 -12 -19 -33q-6 -8 -14 -16q-43 -98 -55 -264q-4 -55 -9 -117v2q111 225 121 246q74 147 133 237q74 115 129 115q59 0 60 -27q0 -4 -29 -37q-6 -6 -6 -8q-147 -223 -264 -446q-37 -68 -64.5 -128.5 t-109.5 -60.5q-53 0 -62.5 27t-9.5 113z" />
<glyph unicode="w" horiz-adv-x="690" d="M-74 84q0 121 84 348q23 59 43.5 79.5t38.5 20.5q31 0 52.5 -21.5t25.5 -43.5q-8 -16 -20 -29q-4 -6 -9 -10l-10 -10q-70 -174 -88 -285q-6 -37 -6 -59v-13q0 -6 5 -12l5 -6q25 0 72 82q33 59 162 364q2 2 5 4.5t5 4.5l6 4h4q33 0 64 -19q12 -6 22 -16l6 -18q0 -4 -8 -21 q-74 -139 -74 -295q0 -29 17 -37q37 0 96 137q63 147 102 332q0 14 -10 32.5t-10 25.5q0 12 10 17t29 5q33 0 56.5 -20.5t23.5 -46.5q0 -39 -37 -174.5t-86 -235.5q-33 -63 -53 -94q-39 -59 -76 -74q-23 -8 -45 -8h-11h-6q-4 2 -6 2q-10 2 -33 10q-61 18 -61 129v2 q-45 -102 -84 -137q-39 -51 -86 -51q-33 0 -51 18q-10 6 -27 23q-37 37 -37 96z" />
<glyph unicode="x" horiz-adv-x="507" d="M-117 -47q0 18 41 74q12 18 43 59l13 18q37 47 90 113q-20 70 -30.5 125t-10.5 80q0 53 42 89t70 36q29 0 39 -96q2 -18 8 -52l5 -41q133 147 213 222q55 51 86 51q14 0 31.5 -11.5t17.5 -25.5q0 -18 -37 -49q-12 -10 -33 -23q-76 -68 -176 -192q-37 -47 -80 -103 q25 -119 55 -153q14 -23 29 -23q14 0 55 49q6 8 39 54q39 70 64.5 117.5t36.5 47.5q16 0 34.5 -17t18.5 -32q0 -14 -35 -84q-59 -119 -117 -170q-37 -33 -80 -45q-23 -6 -45 -6q-53 0 -92 33q-16 14 -33.5 42t-35.5 66v3q-33 -41 -99 -127l-47 -66q-10 0 -14 -4h-15 q-51 0 -51 41z" />
<glyph unicode="y" horiz-adv-x="485" d="M-248 -213q0 27 12 39q6 10 33 10t35 -57q2 -10 8 -31q57 -49 160 -49h18q12 0 33 4q51 27 107 336l22 131q-47 -106 -112 -137q-20 -10 -37 -10q-8 0 -15 2l-12 4q-2 2 -4 7t-8 11q-27 23 -35 44.5t-8 66.5q0 152 51 286q53 143 113 144q25 0 49 -19q14 -8 19 -17t5 -17 t-5 -15.5t-17 -11.5q-70 -135 -105 -297q-8 -39 -8 -68q0 -6 4 -12t11 -6q25 0 102 127q72 117 129 280q0 -6 8 43q12 70 72 70q33 0 50 -11t22 -32q2 -2 8 -12q0 -2 2 -5t2 -5v-5q-2 -8 -8 -20q-2 -4 -9 -8l-12 -8q-111 -201 -153 -461l-43 -262q-18 -61 -74 -115.5 t-119 -71.5q-35 -14 -82 -14q-94 0 -168 96q-41 33 -41 76z" />
<glyph unicode="z" horiz-adv-x="557" d="M-47 63q0 33 115 156q82 86 342 324q-45 -2 -162 -19q-104 -14 -107 -14q-14 0 -28 18q-8 8 -19 43q162 55 299 70q39 4 74 4t59 -20q4 -6 15 -17q12 -16 12 -33q0 -33 -168 -190q-182 -170 -289 -289v2q6 0 162 27q25 4 33 4q37 0 57.5 -14.5t20.5 -36.5q0 -25 -31 -29 t-152 -45q-98 -33 -133 -33q-33 0 -66.5 30t-33.5 62z" />
<glyph unicode="{" d="M170 465v129q2 -2 6 -2h4q4 -2 8 -2h27q135 0 190.5 61.5t55.5 212.5v246q0 152 22 215q39 109 179 137q20 4 159 13l35 2v-127q-2 -2 -8 -2h-21q-4 0 -6 2h-10q-117 0 -162 -49.5t-45 -194.5v-242q0 -170 -43 -237.5t-153 -100.5q125 -33 167 -125q29 -66 29 -208v-238 q0 -152 46 -198t167 -46h39v-125h-35q-176 0 -262 54q-51 33 -74.5 98t-23.5 215v242q0 215 -129 258q-49 14 -117 14h-8q-2 -2 -4 -2h-33z" />
<glyph unicode="|" d="M449 -481v2046h124v-2046h-124z" />
<glyph unicode="}" d="M166 -289h31q2 0 4 -2h10q121 0 164 47t43 201v238q0 164 43 233.5t153 97.5q-111 33 -153.5 100.5t-42.5 235.5v246q0 147 -45 192q-35 43 -168 50l-39 2v125h35q88 0 159 -15q141 -29 181 -139q20 -57 20 -215v-242q0 -154 57.5 -215t190.5 -61h29q2 0 6 2h8v-125 q-2 -2 -8 -2h-21q-4 0 -6 2h-8q-195 0 -234 -148q-14 -53 -14 -129v-237q0 -158 -20 -217q-23 -66 -76 -101q-37 -23 -96.5 -36t-161.5 -13h-41v125z" />
<glyph unicode="~" horiz-adv-x="1705" d="M176 459v135q66 41 203 106q98 35 184 35q82 0 191 -30q41 -12 100 -33q14 -6 45 -17q172 -59 246 -59q117 0 272 88q53 29 113 72v-129q-195 -147 -387 -148q-72 0 -193 35q-29 10 -86 33q-197 72 -303 71q-117 0 -270 -88q-53 -31 -115 -71z" />
<glyph unicode="&#xa1;" horiz-adv-x="520" d="M25 41q0 10 16 39l4 4v2q2 0 4 2v2q98 274 205 600q43 135 90 287v2q4 39 18.5 55.5t51.5 16.5q31 0 43 -7.5t12 -21.5q0 -74 -66 -336q-109 -430 -176 -557q-66 -145 -123 -145q-31 0 -55 18t-24 39zM385 1208q0 49 33 88t80 39v2q25 -2 67 -18q25 -16 25 -47 q0 -51 -47 -98.5t-99 -47.5q-59 0 -59 82z" />
<glyph unicode="&#xa2;" horiz-adv-x="1013" d="M158 430q0 45 10 92t37 109q104 242 227 360q35 33 53.5 41t53.5 8l6 2q10 27 22 66l27 82q70 217 129 217h18q6 0 14.5 -5t8.5 -16v-10q-2 -2 -2 -4v-4q-2 -6 -6 -16l-21 -72q-14 -45 -26 -80l-31 -84q-16 -47 -39 -94l31 -25q20 -10 57 -36l12 -13q20 -25 21 -57 q0 -63 -33 -123q-37 -70 -94 -70q-68 0 -68 52q0 29 29 92q8 20 27 61l-7 12h-2v3l-12 6q-39 -6 -80 -50q-55 -59 -112 -157q-70 -119 -105 -248q-14 -53 -14 -92q0 -49 20.5 -69.5t67.5 -20.5q45 0 98 25.5t96 68.5q27 27 31 27q12 0 27.5 -15.5t15.5 -25.5 q0 -47 -81 -99.5t-181 -52.5l-4 2q-27 -80 -74 -236.5t-82 -156.5q-33 0 -43 6t-10 33q0 43 29 137q39 129 82 233q-123 53 -123 197z" />
<glyph unicode="&#xa3;" horiz-adv-x="1013" d="M-90 106q0 51 51 106.5t115 55.5q23 0 66.5 -8t88.5 -22q20 45 60 221l-37 2h-27q-109 0 -140.5 10t-31.5 41q0 27 41 35t213 12q45 332 152.5 530.5t230.5 198.5q31 0 68 -12q45 -20 78 -43v2q172 -63 172 -172q0 -37 -27 -65.5t-53 -28.5q-20 0 -39 20.5t-19 42.5 q0 2 7 27q6 16 6 31q0 29 -34 50t-83 21q-106 0 -172 -123q-70 -131 -137 -477q174 0 223 -15.5t49 -53.5q0 -10 -6 -17q-12 -6 -25 -6h-4q-4 0 -8 2h-18q-8 2 -17 2h-45q-29 0 -86 -3t-86 -3q-29 -147 -96 -262q14 -4 238 -80q127 -43 143 -43q18 0 50 23.5t48 23.5 q18 0 30.5 -6t12.5 -23q0 -12 -22 -55q-39 -74 -76 -84q-12 -6 -41 -6q-31 0 -379 125q-20 6 -63 22q-51 -59 -113 -110q-39 -31 -76 -31q-59 0 -120.5 48t-61.5 97zM-31 135q0 -25 48.5 -64.5t82.5 -39.5q25 0 46.5 27.5t48.5 78.5v2q-43 16 -129 45q-14 2 -25 2 q-33 0 -47 -18q-8 -4 -16.5 -13.5t-8.5 -19.5z" />
<glyph unicode="&#xa4;" horiz-adv-x="1239" d="M84 424l209 205q-88 104 -88 254q0 143 88 256l-209 207l74 71l207 -207q94 68 188 84q33 6 68 6q135 0 260 -92l202 209l72 -71l-205 -205q86 -117 86 -258q0 -117 -47 -199q-16 -29 -39 -57l205 -203l-72 -76l-202 207q-113 -88 -260 -88q-135 0 -256 86l-207 -205z M307 885q0 -133 92.5 -225.5t223.5 -92.5q129 0 221 94.5t92 223.5v2q0 129 -92 219t-221 90q-131 0 -223.5 -90t-92.5 -221z" />
<glyph unicode="&#xa5;" horiz-adv-x="1013" d="M80 598q0 16 70 25q47 6 233 10l-31 135h-159q-66 -8 -66 59q0 8 6 10.5t16.5 6.5t18.5 4q18 4 133 8h23h14q-23 121 -31 186q-10 80 -10 115q0 80 78 80q68 0 96 -281q16 -166 37 -323v2q205 317 352 500q158 195 203 194q18 0 33 -18q10 -10 12 -20.5t2 -18.5 q0 -14 -113 -154q-131 -160 -204 -262h10q2 -2 6 -2h8q172 -20 172 -55v-8q0 -4 -2 -9v-4q0 -2 -1 -5t-5 -7q-2 0 -254 6l-100 -137l96 -6q8 -2 131 -13q55 -4 76 -22q12 -10 12 -25v-6q0 -10 -6 -22h-80q-20 2 -51 2h-74l-166 2q-78 -197 -121 -377q-20 -80 -45 -139 q-20 -45 -45 -45q-23 0 -53 20q-20 29 -20 66q0 39 34.5 170t92.5 295l-2 8h-60q-23 -2 -45 -2h-45q-23 -2 -45 -2h-68q-35 0 -49 12t-14 47z" />
<glyph unicode="&#xa6;" d="M449 -348v756h124v-756h-124zM449 674v758h124v-758h-124z" />
<glyph unicode="&#xa7;" d="M8 -68q0 49 35 68q2 0 8 2h8q16 0 33 -29q2 -6 8 -16q78 -164 252 -164q86 0 144.5 56.5t58.5 134.5q0 39 -41 90q-18 25 -73.5 76t-75.5 61q-117 92 -158 153.5t-41 143.5q0 195 209 274q-39 55 -52.5 84t-27.5 78q-4 29 -4 53q0 125 88 210t213 85q94 0 179 -51 t130 -133q25 -45 25 -68q0 -29 -18.5 -49t-43.5 -20q-12 0 -30 41q-29 63 -77 102t-104 55q-29 6 -57 7q-74 0 -126 -48.5t-52 -119.5q0 -29 10 -54q16 -51 88 -116q70 -57 209 -181q41 -41 55 -61q25 -31 37 -72q8 -33 8 -67q0 -131 -125 -213q-45 -29 -104 -58v2 q61 -68 80 -143q6 -25 6 -45q0 -125 -95 -224.5t-227 -99.5q-127 0 -239.5 90.5t-112.5 165.5zM266 559q0 -90 215 -264q25 -20 76 -62v3q162 57 162 172q0 92 -289 311q-6 6 -20 14q-143 -59 -144 -174z" />
<glyph unicode="&#xa8;" d="M340 795q0 39 26.5 71.5t63.5 32.5v2q14 -2 39 -16q12 -12 12 -39q0 -23 -8 -47q-25 -61 -84 -62q-18 0 -33.5 17.5t-15.5 40.5zM561 795q0 39 26.5 71.5t63.5 32.5v2q55 -10 56 -55q0 -41 -29 -75t-68 -34q-18 0 -33.5 17.5t-15.5 40.5z" />
<glyph unicode="&#xa9;" horiz-adv-x="1705" d="M119 723q0 297 219 520q102 104 231 158.5t283 54.5v2q240 -6 412 -123q123 -84 202 -202q82 -125 107 -265q12 -72 12 -145q0 -313 -211 -516q-172 -166 -381 -203q-70 -12 -141 -12q-158 0 -279 51q-281 119 -399 399q-55 131 -55 281zM207 723q0 -268 188 -457 q94 -94 211 -141t246 -47q272 0 463 190q139 139 174 328q10 61 10 127v2q0 121 -49 246q-47 119 -137 211q-84 86 -211 139q-113 47 -250 47q-346 0 -535 -285q-111 -168 -110 -360zM465 719q0 207 106.5 332t286.5 125q137 0 230.5 -75t105.5 -194l-129 2 q-16 76 -71.5 119t-139.5 43q-180 0 -231 -201q-16 -66 -17 -149q0 -160 65.5 -252t182.5 -92q137 0 195 106q18 33 24 74l129 2q-8 -135 -117 -215q-98 -74 -235 -74q-188 0 -293 136q-92 123 -92 313z" />
<glyph unicode="&#xaa;" horiz-adv-x="401" d="M-84 983q0 57 21 109q14 51 59 118q59 129 162 129q31 0 44 -5t27 -23h2h5q20 8 34 8q29 0 46.5 -11.5t17.5 -29.5q0 -6 -19 -41l-16 -31q-41 -76 -70 -174q-6 -16 -6 -26q0 -8 4 -14.5t11 -6.5q10 0 33.5 23.5t88.5 113.5q4 6 19 21h4l4 -4t7 -8.5t6 -9.5t1 -5v-6 q0 -6 -22 -49q-63 -121 -129 -137q-12 -4 -27 -4q-29 0 -47 22.5t-18 61.5v28q-39 -70 -82 -98q-39 -37 -82 -37q-78 0 -78 86zM-6 969q0 -10 6 -11h2q12 0 43 23q16 14 55 66q45 61 76 125.5t31 78.5v2q0 10 -6 16.5t-19 6.5q-27 0 -57 -33q-39 -41 -68 -92 q-51 -88 -61 -147q-2 -18 -2 -29v-6z" />
<glyph unicode="&#xab;" horiz-adv-x="604" d="M57 279q0 12 33 55q25 33 88 100q41 43 43 43h12q6 0 12.5 -2t22.5 -8q27 -8 27 -25q0 -6 -27 -36q-66 -76 -112 -125v2q10 -45 39 -109q20 -41 20 -49q0 -25 -43 -35q-12 -4 -29 -4q-12 0 -49 76t-37 117zM256 279q0 12 36 54t95 111q4 6 12 15q16 18 23 18q20 0 46 -10 t26 -25q0 -10 -25 -36q-39 -43 -117 -125v2q20 -70 39 -105q27 -49 27 -53q0 -12 -19.5 -25.5t-54.5 -13.5q-12 0 -50 78t-38 115z" />
<glyph unicode="&#xac;" horiz-adv-x="1705" d="M254 739v117h1196v-502h-115v385h-1081z" />
<glyph unicode="&#xad;" horiz-adv-x="700" d="M84 330v2q121 27 301 26q98 0 129 -17t31 -69q-6 -20 -10.5 -26t-24.5 -8l-283 -23q-37 -4 -59 -4q-57 0 -70.5 17.5t-13.5 101.5z" />
<glyph unicode="&#xae;" horiz-adv-x="1705" d="M119 723q0 225 127 410q35 51 94 112q100 102 229 156.5t283 54.5v2q236 -6 412 -125q123 -84 202 -203q82 -125 107 -262q12 -72 12 -145q0 -311 -213 -516q-174 -166 -379 -203q-70 -12 -141 -12q-229 0 -406 121q-127 88 -206.5 206.5t-106.5 260.5q-14 70 -14 143z M207 723q0 -268 188 -457q96 -96 211 -142t244 -46q199 0 362 108q106 70 181 179q106 156 106 354v2q0 195 -104 360q-68 104 -179.5 179t-234.5 98q-63 10 -129 10q-274 0 -453 -182q-193 -197 -192 -463zM559 315v840h311q176 0 264.5 -57.5t88.5 -173.5 q0 -92 -54.5 -150.5t-144.5 -75.5l188 -383h-155l-176 367h-181v-367h-141zM700 772h150q178 0 213 76q12 27 12 63q0 152 -229 152v2h-146v-293z" />
<glyph unicode="&#xaf;" d="M350 780v6l10 58q16 16 17 16h8v2h297q6 0 9 -2t3 -4v-10l-10 -58q0 -12 -6 -17t-16 -5l-306 2l-4 4v2v2q-2 2 -2 4z" />
<glyph unicode="&#xb0;" d="M377 885q0 61 44 106t105 45l4 2q70 -4 112 -46t42 -107q0 -68 -43 -113t-111 -45q-66 0 -109.5 46t-43.5 112zM455 885q0 -33 22.5 -55.5t52.5 -22.5q76 0 76 78q0 76 -76 76v2q-33 -4 -54 -23.5t-21 -54.5z" />
<glyph unicode="&#xb1;" horiz-adv-x="1705" d="M254 41v117h1196v-117h-1196zM254 719v117h541v344h116v-344h539v-117h-539v-344h-116v344h-541z" />
<glyph unicode="&#xb2;" horiz-adv-x="669" d="M4 545q0 18 39 26q51 12 70 19q27 10 63 37q219 154 354 407q29 53 29 86q0 18 -11 27.5t-36 9.5q-33 0 -61.5 -13.5t-81.5 -51.5q-98 -72 -166 -150q-20 -25 -37 -47q-4 -4 -10 -11t-11 -12q-16 -25 -30 -24q-47 0 -47 45q0 14 32 61q68 96 170 191q80 76 144 102 q31 12 55 13q27 0 53.5 -15.5t30.5 -36.5q109 -31 109 -110q0 -86 -123 -236q-113 -137 -318 -276v2q8 -2 25 -2q18 0 56 3t56 3q84 0 112 -10.5t28 -38.5q0 -29 -37 -37h-41q-6 0 -14 2h-33q-131 0 -279 -25l-49 -8q-20 0 -30.5 20.5t-10.5 49.5z" />
<glyph unicode="&#xb3;" horiz-adv-x="669" d="M-4 575q0 29 12 41q16 20 33 21q12 0 39 -51q0 -4 4 -8q16 -41 66 -41q18 0 69 18q23 8 53 25l56 26q88 53 104 92q6 12 6 25q0 55 -80 72q-27 4 -61 4h-45q-12 -2 -23 -2h-30q-10 0 -15 4l-2 4q-2 0 -2 3t-2 7q0 55 92 68h4h2l3 2h2q70 12 159 61q23 12 47 31 q43 29 78 67q29 33 29 62q0 23 -16.5 33t-55.5 10q-57 0 -149 -37q-80 -31 -191 -106q-10 -6 -20 -17q-18 -14 -27 -14q-37 0 -37 31q0 10 33 45q23 25 82 65q84 59 165 94t132 35q53 0 72 -45q100 -33 100 -117q0 -55 -72.5 -115.5t-212.5 -115.5v2q127 -39 135 -141v-2v-6 q2 -2 3 -5v-10q0 -31 -35 -74q-27 -35 -90 -71q-96 -57 -191 -74q-29 -6 -55 -6q-74 0 -121 31.5t-47 78.5z" />
<glyph unicode="&#xb4;" d="M410 731v8l2 2l4 4l2 3l6 10q14 10 51 63q29 41 60 99l4 10q4 10 32 20l101 2q4 0 10 -3t6 -5v-6v-2v-2l-2 -2l-4 -4l-6 -8q-90 -119 -158 -168l-6 -9l-10 -10q-4 0 -6 -2t-7 -2q-12 -6 -20 -6l-43 2q-4 -2 -6 0q-4 0 -7 2t-3 4z" />
<glyph unicode="&#xb6;" d="M76 1126q0 160 107.5 255.5t285.5 95.5l477 2v-78h-125v-1401h-94v1401h-180v-1401h-96v780q-168 4 -275 101q-100 90 -100 245z" />
<glyph unicode="&#xb7;" horiz-adv-x="507" d="M150 606v2q0 41 31.5 73t72.5 32q43 0 72.5 -30t29.5 -77q0 -43 -29.5 -71.5t-72.5 -28.5q-41 0 -72.5 31.5t-31.5 68.5z" />
<glyph unicode="&#xb8;" d="M170 -305l12 31h2v2q4 8 13 8l12 -4q68 -25 123 -25q78 0 78 64q0 25 -21 45q-18 14 -57 14h-43q-4 0 -8 4v2v12q0 2 2 2v3q0 2 2 2v4l43 141h65l-35 -117h21q127 0 127 -119q0 -90 -94 -116q-31 -8 -72 -8q-63 0 -116.5 14t-53.5 31v10z" />
<glyph unicode="&#xb9;" horiz-adv-x="354" d="M-82 532q0 27 105 39q14 0 18 4v3q35 135 133 397q33 88 72 186h-23q-6 -2 -12 -2h-14q-33 0 -46.5 7.5t-13.5 21.5q0 29 45 47q45 12 152 12q57 0 57 -33q0 -10 -31 -75q-133 -283 -221 -555l6 2q37 -4 54 -15q12 -2 18 -16q0 -2 2 -4v-4q0 -25 -49 -35q-6 -2 -8 -2h-8 q-39 -6 -118 -17.5t-65 -11.5h-8q-2 0 -4 2q-18 6 -25 13q-16 12 -16 36z" />
<glyph unicode="&#xba;" horiz-adv-x="352" d="M-63 997q0 68 53 181q14 27 36.5 62.5t45 53t47.5 17.5q12 0 22.5 -5.5t22.5 -23.5v2q0 -2 2 -2t2 2h12h8q39 0 56.5 -28.5t17.5 -81.5q31 6 55.5 30.5t47.5 46.5q10 10 14 11q12 0 17 -5.5t5 -17.5v-4q0 -4 -1 -8t-4 -8.5t-21.5 -27t-40 -44t-47.5 -31.5q-16 -6 -33 -10 q-76 -225 -209 -225q-45 0 -76.5 33.5t-31.5 82.5zM25 991v2q0 -27 8 -37t22 -10q39 0 85 81t46 161q0 20 -5 29.5t-19 9.5q-37 0 -87 -81t-50 -155z" />
<glyph unicode="&#xbb;" horiz-adv-x="604" d="M33 121q0 4 104 129l33 39q-4 16 -14 49q-8 16 -23 49l-18 37q-6 12 -6 14q0 16 23.5 27.5t45.5 11.5q14 0 51 -76.5t37 -115.5q0 -12 -33 -56q-39 -51 -88 -100q-4 -4 -9 -10t-9 -10q-14 -23 -27 -23q-20 0 -43.5 11.5t-23.5 23.5zM229 121q0 10 103 125l39 43 q-16 47 -58 135q-6 12 -6 14q0 14 24.5 26.5t49.5 12.5q12 0 49 -76.5t37 -115.5q0 -10 -35 -56q-39 -51 -88 -100q-4 -4 -9 -10t-9 -10q-14 -23 -27 -23q-18 0 -44 10t-26 25z" />
<glyph unicode="&#xbc;" horiz-adv-x="1320" d="M-80 580q0 23 88 34q20 0 33 4v3q25 96 65 208l58 154q31 84 69 182h-20q-6 -2 -12 -2h-15q-23 0 -41 6q-10 8 -14 21q0 31 44 43t142 12q57 0 58 -28q0 -6 -33 -76q-125 -266 -209 -514l6 2q31 -4 51.5 -14.5t20.5 -22.5q0 -25 -49 -33h-8q-2 -2 -4 -2h-5 q-37 -6 -112 -16l-43 -6q-14 -2 -17 -3q-20 0 -36.5 13.5t-16.5 34.5zM41 6q0 14 127 203q63 94 147 213l187 262q117 164 360 483q123 150 162 150q41 0 41 -55v-15q0 -6 -4 -13t-21 -15v2q-340 -416 -630 -838q-297 -430 -322 -430q-20 0 -33 18q-2 4 -8 12.5t-6 22.5z M682 180q0 25 72.5 106t318.5 316q59 57 94 82q43 31 60 31q20 0 56 -10.5t36 -24.5q-6 -14 -14 -31q-106 -236 -177 -432h17h2q2 -2 4 -2q59 0 77.5 -11t18.5 -36v-2v-2v-2q-2 -2 -2 -4v-2v-2l-2 -2h-18q-6 2 -13 2h-45q-12 0 -22 -2h-21q-6 -2 -10 -2h-12q-16 -49 -33 -97 q-29 -76 -51 -76q-18 0 -33 11l-2 2q-2 2 -2 4q-6 6 -6 18q0 2 6 45l10 37q6 20 15 51v2q-94 -4 -185 -12q-115 -10 -92 -10q-47 0 -47 55zM780 205q41 0 125 6t127 6v2q20 45 137 338l29 76l-117 -117q-195 -195 -301 -311z" />
<glyph unicode="&#xbd;" horiz-adv-x="1320" d="M-80 580q0 23 88 34q20 0 33 4v3q25 96 65 208l58 154q31 84 69 182h-20q-6 -2 -12 -2h-15q-23 0 -41 6q-10 8 -14 21q0 31 44 43t142 12q57 0 58 -28q0 -6 -33 -76q-125 -266 -209 -514l6 2q31 -4 51.5 -14.5t20.5 -22.5q0 -25 -49 -33h-8q-2 -2 -4 -2h-5 q-37 -6 -112 -16l-43 -6q-14 -2 -17 -3q-20 0 -36.5 13.5t-16.5 34.5zM41 6q0 14 127 203q63 94 147 213l187 262q117 164 360 483q123 150 162 150q41 0 41 -55v-15q0 -6 -4 -13t-21 -15v2q-340 -416 -630 -838q-297 -430 -322 -430q-20 0 -33 18q-2 4 -8 12.5t-6 22.5z M686 49q0 23 39 27q18 4 55 12q70 29 156 108.5t176 196.5q49 63 74.5 114.5t25.5 82.5q0 18 -10 26.5t-28 8.5q-43 0 -103 -35q-145 -90 -233 -211l-4 -4q-2 -2 -3 -4l-4 -4q-2 -2 -4 -7q-16 -25 -30 -24q-18 0 -31 12l-6 8q-4 2 -6 8.5t-2 12.5q0 12 30 55q76 106 160 180 q43 37 63 52q39 29 74 43q29 12 53 12q23 0 51.5 -13.5t32.5 -31.5q102 -35 103 -109q0 -76 -116 -214t-304 -263v2q4 -2 8 0q2 0 47 2t43 2h31q111 0 125 -20q6 -10 6 -27q0 -12 -5 -18t-30 -17q-25 4 -45 4h-39q-139 0 -262 -16q-47 -6 -49 -6q-39 0 -39 55z" />
<glyph unicode="&#xbe;" horiz-adv-x="1619" d="M-4 618q0 25 10 39q20 20 33 21q18 0 31 -33l12 -24q10 -23 23.5 -31t35.5 -8q20 0 70 18q66 25 125 62q84 53 84 96q0 51 -76 63q-27 4 -59 4h-88q-2 -2 -4 -2h-5q-2 0 -2 2q-6 0 -11 3t-5 18q0 47 86 59h10q106 20 201 86q72 49 92 96q6 14 6 25q0 39 -65 39 q-51 0 -140.5 -32t-171.5 -89q-10 -6 -34 -24q-16 -16 -25 -17q-8 0 -21.5 9.5t-13.5 21.5q0 10 29 38.5t81 62.5t158 91q80 33 123 33q55 0 72 -43q92 -33 92 -106q0 -29 -16 -58q-43 -59 -137 -110q-49 -27 -115 -49v2q127 -45 127 -133v-3v-6q0 -2 2 -4v-8q0 -29 -33 -70 q-23 -29 -88 -67q-84 -49 -180 -72q-29 -6 -53 -6q-117 0 -150 68q-10 18 -10 38zM340 6q0 14 127 203q63 94 147 213l187 262q117 164 360 483q123 150 160 150q43 0 43 -55v-15q0 -6 -4 -13t-21 -15v2q-340 -416 -630 -838q-297 -430 -322 -430q-20 0 -33 18q-2 4 -8 12.5 t-6 22.5zM981 180q0 25 72.5 106t318.5 316q59 57 94 82q43 31 60 31q20 0 56 -10.5t36 -24.5q-6 -14 -14 -31q-98 -217 -174 -432h4h10h2q2 -2 4 -2q59 0 77.5 -11t18.5 -36v-2v-2v-2q-2 -2 -2 -4v-2v-2l-2 -2h-18q-6 2 -13 2h-45q-12 0 -22 -2h-21q-6 -2 -10 -2h-12 q-16 -49 -33 -97q-29 -76 -51 -76q-18 0 -33 11l-2 2q-2 2 -2 4q-6 6 -6 18q0 2 6 45l10 37q6 20 15 51v2q-94 -4 -185 -12q-115 -10 -92 -10q-47 0 -47 55zM1079 205q41 0 125 6t127 6v2q20 45 137 338l29 76l-117 -117q-195 -195 -301 -311z" />
<glyph unicode="&#xbf;" horiz-adv-x="972" d="M94 270q0 127 287 467l133 160q59 70 102 125q10 10 35 10h19q55 0 55 -35q0 -31 -129 -204q-63 -86 -100 -140q-6 -6 -37 -49q-199 -276 -199 -381q0 -90 84 -90q80 0 189.5 78t199.5 203q70 -49 70 -90t-58 -107q-10 -14 -47 -47q-57 -53 -182 -150q-80 -49 -127 -49 q-37 0 -74 23q-25 14 -51 72v2q-129 47 -160 139q-10 31 -10 63zM631 1186q0 47 49 96t104 49v2q80 -8 80 -73q0 -47 -51 -100.5t-100 -53.5q-33 0 -57.5 23.5t-24.5 56.5z" />
<glyph unicode="&#xc0;" horiz-adv-x="919" d="M-74 0q0 59 131 346q119 260 338 633l2 2q170 293 285 293q20 0 49 -10q41 -16 47 -19q33 -8 45.5 -18t16.5 -31q0 -14 -19 -45q-33 -53 -49 -168q-49 -334 -49 -770v-35q0 -20 2 -41v-51q0 -78 -78 -78q-63 0 -67 236v20v19q-2 8 -2 16v14q-102 -8 -209 -24l-107 -17 q-55 -8 -110 -18q-27 -66 -54 -133q-35 -84 -67.5 -122t-69.5 -38q-8 0 -33 25q0 2 -2 8v6zM229 416q33 2 174 10q106 8 175 8q16 438 61 696q-156 -229 -410 -714zM563 1599v5q0 8 4 10t15 2l94 2l8 -4q4 -2 6 -5l7 -10.5t5 -11.5l3 -4q20 -92 71 -168l6 -6v-2q0 -2 2 -2 v-2l2 -2v-4q0 -6 -3 -7t-7 -1h-8l-43 2q-2 -2 -6 0q-6 0 -11.5 4t-15.5 14l-4 8q-18 25 -49 66q-45 57 -68 102l-6 12q-2 0 -2 2z" />
<glyph unicode="&#xc1;" horiz-adv-x="919" d="M-74 0q0 59 131 346q119 260 338 633l2 2q170 293 285 293q20 0 49 -10q41 -16 47 -19q33 -8 45.5 -18t16.5 -31q0 -14 -19 -45q-33 -53 -49 -168q-49 -334 -49 -770v-35q0 -20 2 -41v-51q0 -78 -78 -78q-63 0 -67 236v20v19q-2 8 -2 16v14q-102 -8 -209 -24l-107 -17 q-55 -8 -110 -18q-27 -66 -54 -133q-35 -84 -67.5 -122t-69.5 -38q-8 0 -33 25q0 2 -2 8v6zM229 416q33 2 174 10q106 8 175 8q16 438 61 696q-156 -229 -410 -714zM606 1401v2l2 2l4 4l2 2l7 10q18 14 51 64q16 25 30 49l29 49l4 10q4 6 12.5 14.5t20.5 8.5l100 2 q4 -2 10.5 -5t8.5 -3v-6v-2q-2 -2 -2 -3v-2l-2 -2v-2l-2 -2l-9 -8q-35 -49 -124 -139q-18 -18 -31 -29l-12 -12q-2 -2 -5.5 -4t-9.5 -6t-12 -4h-4h-6l-45 2q-4 -2 -7 -2q-10 0 -10 12z" />
<glyph unicode="&#xc2;" horiz-adv-x="919" d="M-74 0q0 59 131 346q119 260 338 633l2 2q170 293 285 293q20 0 49 -10q41 -16 47 -19q33 -8 45.5 -18t16.5 -31q0 -14 -19 -45q-33 -53 -49 -168q-49 -334 -49 -770v-35q0 -20 2 -41v-51q0 -78 -78 -78q-63 0 -67 236v20v19q-2 8 -2 16v14q-102 -8 -209 -24l-107 -17 q-55 -8 -110 -18q-27 -66 -54 -133q-35 -84 -67.5 -122t-69.5 -38q-8 0 -33 25q0 2 -2 8v6zM229 416q33 2 174 10q106 8 175 8q16 438 61 696q-156 -229 -410 -714zM518 1452v8q0 2 6 8q0 2 2 5h2l4 6q6 2 46 41q23 23 67 75l2 9h2l2 2l8 8q8 4 15 4l8 2h92q6 -2 19 -8 q2 0 6 -2l6 -8q2 -4 6 -11l6 -2q49 -80 70 -129l4 -4q0 -4 2 -4q0 -6 2 -10v-19q-4 -4 -10 -6l-43 -18v-2h-2l-2 -2q-4 -2 -7 -2h-4q-14 0 -22 20v2l-2 8l-6 7q-29 55 -72 118l-45 -49q-23 -27 -68 -72q-12 -10 -16 -14h-4l-2 -4q-12 -12 -17 -12h-8q-2 2 -8 6l-33 41 q-2 0 -3 1t-2 3t-1 4z" />
<glyph unicode="&#xc3;" horiz-adv-x="919" d="M-74 0q0 59 131 346q119 260 338 633l2 2q170 293 285 293q20 0 49 -10q41 -16 47 -19q33 -8 45.5 -18t16.5 -31q0 -14 -19 -45q-33 -53 -49 -168q-49 -334 -49 -770v-35q0 -20 2 -41v-51q0 -78 -78 -78q-63 0 -67 236v20v19q-2 8 -2 16v14q-102 -8 -209 -24l-107 -17 q-55 -8 -110 -18q-27 -66 -54 -133q-35 -84 -67.5 -122t-69.5 -38q-8 0 -33 25q0 2 -2 8v6zM229 416q33 2 174 10q106 8 175 8q16 438 61 696q-156 -229 -410 -714zM518 1430v2q0 82 86 118q23 10 49 11q31 0 49 -13l62 -32q4 -8 15.5 -11.5t17.5 -3.5h10q20 0 33.5 15.5 t25.5 31.5q6 6 13 6l45 2q2 -2 3 -2t3 -2l2 -2v-2v-2q0 -49 -36 -87t-85 -38h-12q-8 0 -43 15v2l-66 30q-2 -2 -4 -1t-4 1q-8 4 -18.5 6.5t-18.5 2.5q-25 0 -38 -15.5t-25 -29.5q-6 -6 -11 -7l-45 2l-2 -2q-2 0 -4 1t-2 4z" />
<glyph unicode="&#xc4;" horiz-adv-x="919" d="M-74 0q0 59 131 346q119 260 338 633l2 2q170 293 285 293q20 0 49 -10q41 -16 47 -19q33 -8 45.5 -18t16.5 -31q0 -14 -19 -45q-33 -53 -49 -168q-49 -334 -49 -770v-35q0 -20 2 -41v-51q0 -78 -78 -78q-63 0 -67 236v20v19q-2 8 -2 16v14q-102 -8 -209 -24l-107 -17 q-55 -8 -110 -18q-27 -66 -54 -133q-35 -84 -67.5 -122t-69.5 -38q-8 0 -33 25q0 2 -2 8v6zM229 416q33 2 174 10q106 8 175 8q16 438 61 696q-156 -229 -410 -714zM539 1458q0 39 25.5 73t64.5 34v2q25 -4 37 -17q14 -18 14 -41q0 -41 -26.5 -73.5t-65.5 -32.5 q-49 0 -49 55zM760 1458q0 41 25.5 74t64.5 33v2q23 -4 38 -17.5t15 -40.5q0 -41 -27.5 -73.5t-66.5 -32.5q-49 0 -49 55z" />
<glyph unicode="&#xc5;" horiz-adv-x="919" d="M-74 0q0 59 131 346q119 260 338 633l2 2q170 293 285 293q20 0 49 -10q41 -16 47 -19q33 -8 45.5 -18t16.5 -31q0 -14 -19 -45q-33 -53 -49 -168q-49 -334 -49 -770v-35q0 -20 2 -41v-51q0 -78 -78 -78q-63 0 -67 236v20v19q-2 8 -2 16v14q-102 -8 -209 -24l-107 -17 q-55 -8 -110 -18q-27 -66 -54 -133q-35 -84 -67.5 -122t-69.5 -38q-8 0 -33 25q0 2 -2 8v6zM229 416q33 2 174 10q106 8 175 8q16 438 61 696q-156 -229 -410 -714zM571 1479q0 61 46.5 106t107.5 45v2q66 -4 112 -48t46 -105q0 -68 -45 -113t-113 -45q-59 0 -106.5 47 t-47.5 111zM649 1477q0 -31 22.5 -53.5t53.5 -22.5q33 0 56.5 21.5t23.5 54.5q0 31 -24.5 53t-55.5 22v2q-37 -6 -53 -24q-23 -23 -23 -53z" />
<glyph unicode="&#xc6;" horiz-adv-x="1411" d="M-115 0q0 39 109 233q63 115 123 207q53 76 162 242l6 10q115 190 321 428q125 143 178 144h11q8 -2 20 -7q25 -6 35 -14q29 2 84 6h57q90 0 262 -20q72 -6 211 -21q6 -2 13.5 -7t7.5 -15q0 -53 -248 -72l-166 -12q-78 -6 -133 -15q-27 -72 -74 -229l-43 -143 q-23 -78 -47 -168l125 12q152 12 279 12q57 0 79.5 -9t22.5 -36q0 -29 -11.5 -42t-35.5 -17q-156 -8 -332 -33l-164 -22l-49 -166q-10 -41 -35 -121q109 14 195 25l143 14q121 12 166 12q98 0 98 -39q0 -35 -96 -53q-4 0 -10 -2h-8q-88 -14 -312 -70q-172 -43 -229 -43 q-41 0 -69.5 32t-28.5 73q0 37 47 209q8 37 29 112v2q-106 -10 -170 -22l-211 -37q-61 -86 -134 -227q-74 -150 -139 -150q-16 0 -27.5 13.5t-11.5 25.5zM299 492q6 0 35 4q160 23 287 36l55 197l92 324q18 66 33 114v2q-131 -152 -247 -308t-255 -369z" />
<glyph unicode="&#xc7;" horiz-adv-x="899" d="M10 285q0 127 82 329q78 193 223 412q82 123 160 197q70 66 127 65q37 0 71 -12t77 -43v2q170 -63 170 -172q0 -33 -23 -63.5t-55 -30.5q-25 0 -39.5 20.5t-22.5 83.5q-4 25 -26.5 42.5t-61.5 17.5q-61 0 -134 -55.5t-159 -166.5q-100 -129 -166 -297q-74 -182 -73 -333 q0 -102 49 -157.5t133 -55.5q115 0 254 86q43 31 131 88q18 10 29 10h4v-2q8 0 11 -6t3 -23q0 -20 -26 -53q-123 -152 -310 -193q-37 -8 -67 -8q-168 0 -264.5 86t-96.5 232zM117 -305l12 31h2v2q4 8 12 8l13 -4q66 -25 123 -25q37 0 57 18.5t20 45.5q0 59 -77 59h-43 q-4 0 -9 4v2v12q0 2 2 2v3q0 2 2 2v4l43 141h66l-35 -117h21q127 0 127 -119q0 -125 -164 -124q-66 0 -119 14t-53 31v10z" />
<glyph unicode="&#xc8;" horiz-adv-x="929" d="M14 74q0 16 68 274q33 125 88 324l129 469q23 80 49.5 94t161.5 14q66 0 219 -16l238 -25q18 0 25 -5t7 -17q0 -53 -245 -72l-166 -12q-78 -6 -133 -15q-68 -197 -119 -380l-43 -160l123 12q145 12 276 12q59 0 82 -9t23 -36q0 -29 -11.5 -42t-37.5 -17q-152 -8 -330 -33 l-162 -22v2q-18 -55 -51 -168q-20 -80 -35 -121q111 14 197 25l143 14q119 12 164 12q76 0 92 -20q6 -8 6 -19q0 -35 -96 -53q-8 -2 -10 -2h-11q-86 -14 -309 -70q-172 -43 -227 -43q-41 0 -73 32t-32 73zM567 1599v5q0 8 4 10t15 2l94 2q4 -4 6 -4t6 -4t9.5 -11.5 t5.5 -11.5l2 -4q20 -92 71 -168l6 -6v-2q0 -2 2 -2v-2q2 -2 3 -2v-4q0 -6 -3.5 -7t-7.5 -1h-8l-43 2q-2 -2 -4 0q-12 2 -15 5t-14 13l-4 8q-8 8 -51 65.5t-66 102.5l-6 12q-2 0 -2 2z" />
<glyph unicode="&#xc9;" horiz-adv-x="929" d="M14 74q0 16 68 274q33 125 88 324l129 469q23 80 49.5 94t161.5 14q66 0 219 -16l238 -25q18 0 25 -5t7 -17q0 -53 -245 -72l-166 -12q-78 -6 -133 -15q-68 -197 -119 -380l-43 -160l123 12q145 12 276 12q59 0 82 -9t23 -36q0 -29 -11.5 -42t-37.5 -17q-152 -8 -330 -33 l-162 -22v2q-18 -55 -51 -168q-20 -80 -35 -121q111 14 197 25l143 14q119 12 164 12q76 0 92 -20q6 -8 6 -19q0 -35 -96 -53q-8 -2 -10 -2h-11q-86 -14 -309 -70q-172 -43 -227 -43q-41 0 -73 32t-32 73zM610 1401v2l2 2l4 4l2 2l7 10q18 14 51 64q16 25 31 49l28 49l4 10 q4 6 12.5 14.5t20.5 8.5l100 2q4 -2 10.5 -5t8.5 -3v-6v-2q-2 -2 -2 -3v-2l-2 -2v-2l-2 -2l-8 -8q-35 -49 -125 -139q-18 -18 -31 -29l-12 -12q-2 -2 -5.5 -4t-9.5 -6t-12 -4h-4h-6l-45 2q-4 -2 -6 -2q-10 0 -11 12z" />
<glyph unicode="&#xca;" horiz-adv-x="929" d="M14 74q0 16 68 274q33 125 88 324l129 469q23 80 49.5 94t161.5 14q66 0 219 -16l238 -25q18 0 25 -5t7 -17q0 -53 -245 -72l-166 -12q-78 -6 -133 -15q-68 -197 -119 -380l-43 -160l123 12q145 12 276 12q59 0 82 -9t23 -36q0 -29 -11.5 -42t-37.5 -17q-152 -8 -330 -33 l-162 -22v2q-18 -55 -51 -168q-20 -80 -35 -121q111 14 197 25l143 14q119 12 164 12q76 0 92 -20q6 -8 6 -19q0 -35 -96 -53q-8 -2 -10 -2h-11q-86 -14 -309 -70q-172 -43 -227 -43q-41 0 -73 32t-32 73zM522 1452v8q0 2 6 8q0 2 2 5h2l5 6q10 4 45 41q23 27 67 75l2 9 l11 10h4q2 2 4 3t4 1h4l8 2h92q6 -2 19 -8q2 0 6 -2l6 -8q2 -4 6 -11l6 -2q49 -80 70 -129l4 -4q0 -6 4 -14v-15q0 -2 -1 -4t-9 -6l-43 -18v-2h-2l-2 -2q-4 -2 -6 -2h-5q-14 0 -22 20v2l-2 8l-6 7q-37 70 -74 118q-27 -31 -84 -92q-14 -14 -45 -43h-2l-2 -4q-12 -12 -16 -12 h-9q-2 2 -8 6l-33 41q-2 0 -3 1t-2 3t-1 4z" />
<glyph unicode="&#xcb;" horiz-adv-x="929" d="M14 74q0 16 68 274q33 125 88 324l129 469q23 80 49.5 94t161.5 14q66 0 219 -16l238 -25q18 0 25 -5t7 -17q0 -53 -245 -72l-166 -12q-78 -6 -133 -15q-68 -197 -119 -380l-43 -160l123 12q145 12 276 12q59 0 82 -9t23 -36q0 -29 -11.5 -42t-37.5 -17q-152 -8 -330 -33 l-162 -22v2q-18 -55 -51 -168q-20 -80 -35 -121q111 14 197 25l143 14q119 12 164 12q76 0 92 -20q6 -8 6 -19q0 -35 -96 -53q-8 -2 -10 -2h-11q-86 -14 -309 -70q-172 -43 -227 -43q-41 0 -73 32t-32 73zM543 1458q0 39 25.5 73t64.5 34v2q25 -4 37 -18.5t12 -39.5 q0 -23 -8 -47q-23 -59 -82 -59q-23 0 -36 17.5t-13 37.5zM764 1458q0 39 25.5 73t62.5 34v2q25 -4 41 -17q14 -18 14 -41q0 -43 -27.5 -74.5t-68.5 -31.5q-47 0 -47 55z" />
<glyph unicode="&#xcc;" horiz-adv-x="468" d="M4 49q0 39 72 289q63 225 184 598q6 16 16 45q100 293 179 293q25 0 71 -47q8 -12 9 -25q0 -8 -31 -80q-203 -473 -346 -1069v-16v-2v-4q0 -4 2 -6v-11q0 -20 -29 -26q-10 -2 -22 -2q-104 0 -105 63zM338 1599v11q0 2 3 4t13 2l95 2q6 -2 14 -7t12 -24l2 -4 q16 -53 55 -137q4 -8 19 -31l4 -6q0 -2 2 -2v-2h2v-2v-2v-4v-4q0 -2 -3 -3t-5 -1h-8l-43 2q-4 -2 -8 0q-6 0 -11 2l-8 8q-4 4 -6 8l-4 8q-8 8 -51 66q-31 41 -68 102l-4 12q-2 0 -2 2z" />
<glyph unicode="&#xcd;" horiz-adv-x="468" d="M4 49q0 39 72 289q63 225 184 598q6 16 16 45q100 293 179 293q25 0 71 -47q8 -12 9 -25q0 -8 -31 -80q-203 -473 -346 -1069v-16v-2v-4q0 -4 2 -6v-11q0 -20 -29 -26q-10 -2 -22 -2q-104 0 -105 63zM381 1397v4v2l2 2l4 4v2l6 10q35 27 84 113l29 49l4 10q4 10 14 17 q4 2 13 6h4h2l98 2q6 -2 12 -5l6 -3v-6v-2v-5l-2 -2l-4 -4l-8 -8q-14 -25 -84 -98q-43 -47 -72 -70l-8 -8l-5 -5l-3 -3h-2q-6 -6 -12 -8t-19 -2l-45 2q-4 -2 -6 -2q-8 0 -8 8z" />
<glyph unicode="&#xce;" horiz-adv-x="468" d="M4 49q0 39 72 289q63 225 184 598q6 16 16 45q100 293 179 293q25 0 71 -47q8 -12 9 -25q0 -8 -31 -80q-203 -473 -346 -1069v-16v-2v-4q0 -4 2 -6v-11q0 -20 -29 -26q-10 -2 -22 -2q-104 0 -105 63zM293 1448v12q0 2 6 8q0 2 2 5l4 6q12 4 47 41q23 25 68 75l2 9l10 10 h4l3 3t3 1h4l11 2h92q6 -2 15 -7t22 -22l6 -2q6 -16 20 -35q6 -12 18.5 -34.5t28.5 -59.5l5 -4q4 -8 5 -12t1 -6v-11q0 -2 -2 -4t-11 -6l-43 -18v-2h-2v-2h-2q-2 -2 -4 -2h-6q-12 0 -20 20q-2 0 -2 2l-3 8q2 0 -4 7q-41 70 -73 118q-45 -53 -84 -92q-8 -8 -22.5 -21.5 t-22.5 -21.5h-2v-2l-5 -4h-2q-2 -2 -2 -4q-6 -6 -12 -6h-2h-4q-2 2 -8 6l-35 41v2q-2 0 -4 2z" />
<glyph unicode="&#xcf;" horiz-adv-x="468" d="M4 49q0 39 72 289q63 225 184 598q6 16 16 45q100 293 179 293q25 0 71 -47q8 -12 9 -25q0 -8 -31 -80q-203 -473 -346 -1069v-16v-2v-4q0 -4 2 -6v-11q0 -20 -29 -26q-10 -2 -22 -2q-104 0 -105 63zM311 1458q0 37 27 72t63 35v2q27 -4 39.5 -18.5t12.5 -39.5 q0 -23 -9 -47q-23 -59 -84 -59q-20 0 -34 14q-14 25 -15 41zM532 1458q0 37 27 72t64 35v2q55 -8 55 -58q0 -41 -28.5 -73.5t-67.5 -32.5q-20 0 -35 14q-14 25 -15 41z" />
<glyph unicode="&#xd0;" horiz-adv-x="946" d="M-2 221q0 223 127 488q78 166 203 313q113 137 233 213q45 29 72 29q18 0 53 -20.5t88 -65.5q66 -37 114 -101.5t48 -97.5q0 -10 -8 -22.5t-13 -12.5l-6 -2q-2 -2 -6 -2q-18 0 -75.5 82t-106.5 82q-45 0 -107 -39q-147 -92 -266 -277q-66 -98 -115 -202 q-98 -205 -98 -361q0 -119 66 -143q23 -8 55 -8q141 0 272 88q139 94 215 237l-2 2h-2q-29 4 -47 5q-41 0 -108 -13q-90 -16 -107 -18q-35 -4 -57 -4q-45 0 -70.5 19.5t-25.5 49.5q0 12 34 31q27 14 86 27q121 27 269 26q96 0 125.5 -25.5t29.5 -95.5q0 -35 -47 -110 q-41 -66 -127 -150q-94 -92 -186 -133t-193 -41q-37 0 -141 35q-111 57 -143.5 98t-32.5 119zM578 1561v22q0 8 2 12l8 9q2 2 6 2l57 2q12 -4 20.5 -50.5t69.5 -46.5q80 0 107 48q16 25 35 47v2h57l6 -2l3 -3t1 -6v-8q0 -117 -133 -164q-39 -14 -86 -14q-68 0 -110.5 43 t-42.5 107z" />
<glyph unicode="&#xd1;" horiz-adv-x="976" d="M-4 0q0 23 12 100l23 86q8 31 26 101q61 221 154 479q84 236 137 354q43 96 193 97q31 0 43 -7q2 -2 8 -6t6 -12q0 -10 -6 -27.5t-21 -44.5q-27 -115 -26 -268q0 -317 61 -625q39 170 99 361q45 129 137 403l8 25q27 82 39 110q25 63 55.5 107.5t63.5 44.5q18 0 30.5 -6 t12.5 -23q0 -6 -9 -22l-20 -41q-98 -268 -195 -572q-74 -229 -120 -438q-2 -2 -7 -22q-25 -117 -104 -117q-20 0 -50 23.5t-48 54.5q-31 49 -60 254q-31 213 -30 442v43v47q0 12 4 57q2 35 2 56v2q-96 -264 -187 -557q-53 -170 -121 -459q-12 -53 -26 -53q-27 0 -60 18 q-25 14 -24 35zM547 1430v2q0 51 41 90t94 39q10 0 23 -5h4q2 -2 6 -3t14 -5l62 -32q4 -4 6 -5l6 -4q4 -4 10 -5t12 -1h9q29 0 43 27q10 12 28 26l45 2q4 -2 5 -2t3 -2v-6q0 -51 -34.5 -88t-83.5 -37h-13q-10 0 -45 15v2l-63 30q-2 -2 -4 -1t-4 1q-8 4 -18.5 6.5t-18.5 2.5 q-25 0 -38 -15.5t-26 -29.5q-8 -6 -12 -7l-45 2v-2q-2 0 -4 1t-2 4z" />
<glyph unicode="&#xd2;" horiz-adv-x="1101" d="M35 346q0 139 53 281q55 150 166 303t235.5 251.5t202.5 98.5q39 0 64 -14q16 -6 69 -49v2q240 -41 240 -338q0 -172 -63.5 -362.5t-167.5 -325.5q-182 -233 -400 -234q-68 0 -164 33q-236 80 -235 354zM174 313v2q0 -117 56.5 -183t160.5 -66q100 0 199 67 q152 104 246 326q102 240 102 452q0 168 -92 215q-31 14 -72 15q-82 0 -147 -47q-78 -45 -156 -136q-121 -139 -201 -299q-96 -193 -96 -346zM653 1599v5q0 8 4.5 10t14.5 2l94 2q4 -4 6 -4t6 -4t9.5 -11.5t5.5 -11.5l2 -4q20 -92 71 -168l6 -6v-2q0 -2 2 -2v-2q2 -2 3 -2 v-4q0 -6 -3.5 -7t-7.5 -1h-8l-43 2q-4 -2 -8 0q-6 0 -10 4t-15 14l-4 8q-8 8 -51 65.5t-65 102.5l-7 12q-2 0 -2 2z" />
<glyph unicode="&#xd3;" horiz-adv-x="1101" d="M35 346q0 139 53 281q55 150 166 303t235.5 251.5t202.5 98.5q39 0 64 -14q16 -6 69 -49v2q240 -41 240 -338q0 -172 -63.5 -362.5t-167.5 -325.5q-182 -233 -400 -234q-68 0 -164 33q-236 80 -235 354zM174 313v2q0 -117 56.5 -183t160.5 -66q100 0 199 67 q152 104 246 326q102 240 102 452q0 168 -92 215q-31 14 -72 15q-82 0 -147 -47q-78 -45 -156 -136q-121 -139 -201 -299q-96 -193 -96 -346zM696 1401v2l2 2l4 4l3 2l6 10q18 14 51 64q16 25 31 49l28 49l4 10q4 6 12.5 14.5t20.5 8.5l100 2q4 -2 10.5 -5t8.5 -3v-6v-2 q-2 -2 -2 -3v-2l-2 -2v-2l-2 -2l-8 -8q-35 -49 -125 -139q-18 -18 -31 -29l-12 -12q-2 -2 -5.5 -4t-9.5 -6t-12 -4h-4h-6l-45 2q-4 -2 -6 -2q-10 0 -11 12z" />
<glyph unicode="&#xd4;" horiz-adv-x="1101" d="M35 346q0 139 53 281q55 150 166 303t235.5 251.5t202.5 98.5q39 0 64 -14q16 -6 69 -49v2q240 -41 240 -338q0 -172 -63.5 -362.5t-167.5 -325.5q-182 -233 -400 -234q-68 0 -164 33q-236 80 -235 354zM174 313v2q0 -117 56.5 -183t160.5 -66q100 0 199 67 q152 104 246 326q102 240 102 452q0 168 -92 215q-31 14 -72 15q-82 0 -147 -47q-78 -45 -156 -136q-121 -139 -201 -299q-96 -193 -96 -346zM608 1452v8q0 2 6 8q0 2 2 5h2l5 6q10 4 45 41q23 27 67 75l2 9l11 10h4q2 2 4 3t4 1h4l8 2h92q6 -2 19 -8q2 0 6 -2l6 -8 q2 -4 6 -11l6 -2q49 -80 70 -129l4 -4q0 -6 4 -14v-15q0 -2 -1 -4t-9 -6l-43 -18v-2h-2l-2 -2q-4 -2 -6 -2h-4q-14 0 -23 20v2l-2 8l-6 7q-37 70 -74 118q-27 -31 -84 -92q-14 -14 -45 -43h-2l-2 -4q-12 -12 -16 -12h-9q-2 2 -8 6l-33 41q-2 0 -3 1t-2 3t-1 4z" />
<glyph unicode="&#xd5;" horiz-adv-x="1101" d="M35 346q0 139 53 281q55 150 166 303t235.5 251.5t202.5 98.5q39 0 64 -14q16 -6 69 -49v2q240 -41 240 -338q0 -172 -63.5 -362.5t-167.5 -325.5q-182 -233 -400 -234q-68 0 -164 33q-236 80 -235 354zM174 313v2q0 -117 56.5 -183t160.5 -66q100 0 199 67 q152 104 246 326q102 240 102 452q0 168 -92 215q-31 14 -72 15q-82 0 -147 -47q-78 -45 -156 -136q-121 -139 -201 -299q-96 -193 -96 -346zM608 1430v2q0 82 86 118q23 10 49 11q27 0 50 -13l59 -32q4 -2 12 -7l10 -6q6 -2 13 -2h8q29 0 43 27q10 12 31 26l45 2q2 -2 3 -2 t3 -2l2 -2v-2v-2q0 -49 -36 -87t-85 -38h-12q-10 0 -27 9q-8 2 -16 6v2l-66 30q-2 -2 -4 -1t-4 1q-8 4 -18.5 6.5t-18.5 2.5q-25 0 -38 -15.5t-25 -29.5q-6 -6 -10 -7l-46 2l-2 -2q-2 0 -4 1t-2 4z" />
<glyph unicode="&#xd6;" horiz-adv-x="1101" d="M35 346q0 139 53 281q55 150 166 303t235.5 251.5t202.5 98.5q39 0 64 -14q16 -6 69 -49v2q240 -41 240 -338q0 -172 -63.5 -362.5t-167.5 -325.5q-182 -233 -400 -234q-68 0 -164 33q-236 80 -235 354zM174 313v2q0 -117 56.5 -183t160.5 -66q100 0 199 67 q152 104 246 326q102 240 102 452q0 168 -92 215q-31 14 -72 15q-82 0 -147 -47q-78 -45 -156 -136q-121 -139 -201 -299q-96 -193 -96 -346zM629 1458q0 39 25.5 73t64.5 34v2q25 -4 37 -18.5t12 -39.5q0 -23 -8 -47q-23 -59 -82 -59q-23 0 -36 17.5t-13 37.5zM850 1458 q0 39 25.5 73t62.5 34v2q25 -4 41 -17q14 -18 14 -41q0 -43 -27.5 -74.5t-68.5 -31.5q-47 0 -47 55z" />
<glyph unicode="&#xd7;" horiz-adv-x="1705" d="M299 133l475 475l-475 477l82 82l475 -477l475 477l82 -82l-475 -477l475 -475l-82 -82l-475 475l-475 -475z" />
<glyph unicode="&#xd8;" horiz-adv-x="1101" d="M-59 -164q0 39 100 172q20 29 63 86q-70 123 -69 250q0 139 53 281q55 150 166 303t236.5 252.5t201.5 99.5q39 0 64 -14q16 -6 69 -49v2q45 -10 127 -48l11 11q33 37 106 104q39 31 64 31q14 0 23 -9.5t9 -23.5q0 -51 -37 -70q-35 -43 -108 -122q45 -90 45 -209 q0 -172 -63.5 -363.5t-167.5 -326.5q-182 -233 -400 -234q-115 0 -248 70l-22 -29q-162 -205 -168 -205q-18 0 -37 15q-4 2 -8 6l-6 6q-4 8 -4 14zM174 311q0 -23 4 -51q2 -6 8 -37q2 -6 7 -18v2l331 428q160 205 367 459q-10 6 -27 20q-41 27 -90 27q-88 0 -178 -68 q-96 -74 -197 -205q-162 -213 -209 -428q-16 -68 -16 -129zM252 111q53 -45 135 -45q160 0 297 149q193 209 244 557q10 76 10 152v32q0 6 -2 17.5t-2 17.5v2q-70 -86 -146 -182l-337 -438q-94 -123 -199 -262z" />
<glyph unicode="&#xd9;" horiz-adv-x="1019" d="M74 225q0 115 65 348q61 219 174 480q8 8 13 26q66 152 135 152q31 0 61.5 -20.5t30.5 -49.5q0 -14 -8 -26l-10 -11q-2 -2 -8.5 -6t-8.5 -6q-154 -342 -221 -561q-78 -250 -78 -395q0 -109 60 -109q29 0 75.5 33t106.5 100q145 164 194 314l93 272q29 88 69 207l84 237 q10 29 35 54q25 14 51 14q57 0 96 -21q33 -16 33 -53q0 -20 -6 -33l-10 -10l-19 -12q-143 -303 -241 -610q-90 -283 -90 -406q0 -41 8 -78v-4q0 -4 2 -4v-2v-2q0 -8 -8 -16l-4 -4q-2 -2 -7 -5q-8 -8 -18 -12t-16 -4q-39 0 -62 47q-20 41 -20 125v33q0 6 2 18.5t2 18.5v2 q-80 -135 -167 -208t-157 -73q-102 0 -166.5 68.5t-64.5 191.5zM612 1599v5q0 8 4.5 10t14.5 2l94 2q4 -4 6 -4t6 -4t9.5 -11.5t5.5 -11.5l2 -4q20 -92 71 -168l6 -6v-2q0 -2 3 -2v-2l2 -2v-4q0 -6 -3.5 -7t-7.5 -1h-8l-43 2q-4 -2 -8 0q-6 0 -10 4t-15 14l-4 8 q-8 8 -51 65.5t-65 102.5l-7 12q-2 0 -2 2z" />
<glyph unicode="&#xda;" horiz-adv-x="1019" d="M74 225q0 115 65 348q61 219 174 480q8 8 13 26q66 152 135 152q31 0 61.5 -20.5t30.5 -49.5q0 -14 -8 -26l-10 -11q-2 -2 -8.5 -6t-8.5 -6q-154 -342 -221 -561q-78 -250 -78 -395q0 -109 60 -109q29 0 75.5 33t106.5 100q145 164 194 314l93 272q29 88 69 207l84 237 q10 29 35 54q25 14 51 14q57 0 96 -21q33 -16 33 -53q0 -20 -6 -33l-10 -10l-19 -12q-143 -303 -241 -610q-90 -283 -90 -406q0 -41 8 -78v-4q0 -4 2 -4v-2v-2q0 -8 -8 -16l-4 -4q-2 -2 -7 -5q-8 -8 -18 -12t-16 -4q-39 0 -62 47q-20 41 -20 125v33q0 6 2 18.5t2 18.5v2 q-80 -135 -167 -208t-157 -73q-102 0 -166.5 68.5t-64.5 191.5zM655 1401v2l2 2l5 4l2 2l6 10q18 14 51 64q16 25 31 49l28 49l4 10q4 6 12.5 14.5t20.5 8.5l101 2l10 -5t8 -3v-6v-2q-2 -2 -2 -3v-2l-2 -2v-2l-2 -2l-8 -8q-35 -49 -125 -139q-18 -18 -31 -29l-12 -12 q-2 -2 -5.5 -4t-9.5 -6t-12 -4h-4h-6l-45 2q-4 -2 -6 -2q-10 0 -11 12z" />
<glyph unicode="&#xdb;" horiz-adv-x="1019" d="M74 225q0 115 65 348q61 219 174 480q8 8 13 26q66 152 135 152q31 0 61.5 -20.5t30.5 -49.5q0 -14 -8 -26l-10 -11q-2 -2 -8.5 -6t-8.5 -6q-154 -342 -221 -561q-78 -250 -78 -395q0 -109 60 -109q29 0 75.5 33t106.5 100q145 164 194 314l93 272q29 88 69 207l84 237 q10 29 35 54q25 14 51 14q57 0 96 -21q33 -16 33 -53q0 -20 -6 -33l-10 -10l-19 -12q-143 -303 -241 -610q-90 -283 -90 -406q0 -41 8 -78v-4q0 -4 2 -4v-2v-2q0 -8 -8 -16l-4 -4q-2 -2 -7 -5q-8 -8 -18 -12t-16 -4q-39 0 -62 47q-20 41 -20 125v33q0 6 2 18.5t2 18.5v2 q-80 -135 -167 -208t-157 -73q-102 0 -166.5 68.5t-64.5 191.5zM567 1452v8q0 2 6 8q0 2 2 5h3l4 6q10 4 45 41q23 27 67 75l2 9l11 10h4q2 2 4 3t4 1h4l8 2h92q6 0 19 -8q6 -2 18 -21l6 -2q25 -41 70 -129l2 -4q2 -4 6 -14v-15q0 -2 -1 -4t-9 -6l-43 -18v-2h-2l-2 -2 q-4 -2 -6 -2h-4q-14 0 -23 20q-2 0 -2 2v8l-6 7q-37 70 -74 118q-27 -31 -84 -92q-14 -14 -45 -43h-2l-2 -4q-12 -12 -16 -12h-9q-2 2 -8 6l-33 41q-2 0 -3 1t-2 3t-1 4z" />
<glyph unicode="&#xdc;" horiz-adv-x="1019" d="M74 225q0 115 65 348q61 219 174 480q8 8 13 26q66 152 135 152q31 0 61.5 -20.5t30.5 -49.5q0 -14 -8 -26l-10 -11q-2 -2 -8.5 -6t-8.5 -6q-154 -342 -221 -561q-78 -250 -78 -395q0 -109 60 -109q29 0 75.5 33t106.5 100q145 164 194 314l93 272q29 88 69 207l84 237 q10 29 35 54q25 14 51 14q57 0 96 -21q33 -16 33 -53q0 -20 -6 -33l-10 -10l-19 -12q-143 -303 -241 -610q-90 -283 -90 -406q0 -41 8 -78v-4q0 -4 2 -4v-2v-2q0 -8 -8 -16l-4 -4q-2 -2 -7 -5q-8 -8 -18 -12t-16 -4q-39 0 -62 47q-20 41 -20 125v33q0 6 2 18.5t2 18.5v2 q-80 -135 -167 -208t-157 -73q-102 0 -166.5 68.5t-64.5 191.5zM588 1458q0 41 25.5 74t64.5 33v2q25 -4 37 -18.5t12 -39.5q0 -23 -8 -47q-23 -59 -82 -59q-23 0 -36 17.5t-13 37.5zM809 1458q0 39 25.5 73t62.5 34v2q25 -4 41 -17q14 -18 14 -41q0 -41 -27.5 -73.5 t-68.5 -32.5q-47 0 -47 55z" />
<glyph unicode="&#xdd;" horiz-adv-x="468" d="M4 49q0 39 72 289q63 225 184 598q6 16 16 45q100 293 179 293q25 0 71 -47q8 -12 9 -25q0 -8 -31 -80q-203 -473 -346 -1069v-16v-2v-4q0 -4 2 -6v-11q0 -20 -29 -26q-10 -2 -22 -2q-104 0 -105 63zM408 1468q0 35 29.5 71t64.5 36v2q29 -4 42 -19.5t13 -46.5 q0 -39 -24.5 -73.5t-63.5 -34.5q-25 0 -43 20.5t-18 44.5z" />
<glyph unicode="&#xde;" horiz-adv-x="817" d="M-66 258q0 12 11 33l4 8q6 12 26 25q12 6 25 6q12 0 29 -37q53 -117 133 -161t178 -44q102 0 127 80q-18 66 -94 141q-49 43 -137 135q-70 82 -70 197q0 158 110 334q68 106 152 190q100 100 156 101h4q20 -8 20 -9l6 3q51 -4 78 -25q37 -27 86 -102v2q119 -76 140 -121 q6 -18 6 -37q0 -25 -37 -43l-10 -6q-12 -4 -25 -4q-18 0 -33 12q-4 2 -16 16q-29 33 -49 80q-4 4 -4 10q-16 51 -64 52q-51 0 -111.5 -43t-119.5 -119q-88 -117 -115 -248q-8 -43 -8 -84q0 -70 42 -145.5t118 -145.5q43 -33 116 -110q23 -33 23 -62q0 -76 -82 -124t-197 -48 q-166 0 -292 97.5t-126 195.5zM76 -305l12 31h2v2q4 8 12 8l13 -4q68 -25 123 -25q78 0 77 64q0 59 -77 59h-43q-4 0 -9 4v2v12q0 2 2 2v3q0 2 2 2v4l43 141h66l-35 -117h21q127 0 127 -119q0 -125 -164 -124q-66 0 -119 14t-53 31v10z" />
<glyph unicode="&#xdf;" horiz-adv-x="614" d="M-25 14q0 45 48 215q39 143 135 430q88 266 200 433q106 158 197 157q27 0 45 -32q6 -12 12 -29q45 -31 45 -105q0 -111 -48 -223t-136 -201v3q-74 -102 -74 -224q0 -74 21 -174q18 -86 37 -172q8 -41 8 -57q0 -49 -31 -90t-65 -41q-37 0 -96.5 47t-94.5 59l-12 4 q-20 4 -21 21q0 25 12.5 42t26.5 17q27 0 154 -57q8 -4 18 -8q0 29 -28.5 172t-28.5 258q0 63 27.5 120.5t81.5 110.5q78 111 120.5 217.5t42.5 190.5q0 53 -24 53q-39 0 -82 -62.5t-119 -242.5q-174 -408 -229 -725q-8 -47 -15 -64q-8 -37 -24 -55q-20 -27 -51 -27 q-25 0 -38.5 10.5t-13.5 28.5z" />
<glyph unicode="&#xe0;" horiz-adv-x="536" d="M-115 84q0 106 60 240q20 43 49 88q33 74 106 143q57 53 111 53q29 0 49 -14q8 -6 20.5 -16.5t24.5 -26.5h6q4 2 6 2q12 4 19.5 5t13.5 1h10q82 0 82 -51q0 -12 -26 -70q-76 -141 -113 -284q-6 -25 -6 -39t4 -23q12 -6 14 -6q14 0 43 31q57 61 107 143q6 10 14 23 q23 27 27 26q6 0 10 -2t10 -12q10 -16 11.5 -19.5t1.5 -5.5v-6q0 -12 -33 -71q-27 -49 -80 -115q-16 -23 -64 -68q-25 -14 -63 -14q-47 0 -68.5 27.5t-21.5 89.5v32q0 4 2 7v2q-78 -137 -168 -177q-29 -12 -53 -12q-49 0 -77 35t-28 84zM-8 70q0 -23 8 -23q0 -2 2 -2 q18 0 57 37q63 59 129 180q55 100 78 168q8 27 8 37v2q0 16 -7 23.5t-21 7.5q-31 0 -78 -47q-59 -59 -125 -203q-35 -74 -47 -135q-4 -29 -4 -45zM160 936v2v6q0 6 8 6h8l94 2q6 -2 14.5 -6t12.5 -22l2 -4q27 -84 55 -138q10 -18 19 -30l6 -7v-2q0 -2 2 -2v-2q0 -2 2 -4v-4 v-2l-4 -4h-2h-4q-2 -2 -4 -2h-4l-43 2q-4 -2 -9 0q-6 2 -10 4l-6 8q-4 2 -8 8l-4 9q-8 8 -51.5 65.5t-65.5 102.5l-6 12q-2 0 -2 2z" />
<glyph unicode="&#xe1;" horiz-adv-x="536" d="M-115 84q0 106 60 240q20 43 49 88q33 74 106 143q57 53 111 53q29 0 49 -14q8 -6 20.5 -16.5t24.5 -26.5h6q4 2 6 2q12 4 19.5 5t13.5 1h10q82 0 82 -51q0 -12 -26 -70q-76 -141 -113 -284q-6 -25 -6 -39t4 -23q12 -6 14 -6q14 0 43 31q57 61 107 143q6 10 14 23 q23 27 27 26q6 0 10 -2t10 -12q10 -16 11.5 -19.5t1.5 -5.5v-6q0 -12 -33 -71q-27 -49 -80 -115q-16 -23 -64 -68q-25 -14 -63 -14q-47 0 -68.5 27.5t-21.5 89.5v32q0 4 2 7v2q-78 -137 -168 -177q-29 -12 -53 -12q-49 0 -77 35t-28 84zM-8 70q0 -23 8 -23q0 -2 2 -2 q18 0 57 37q63 59 129 180q55 100 78 168q8 27 8 37v2q0 16 -7 23.5t-21 7.5q-31 0 -78 -47q-59 -59 -125 -203q-35 -74 -47 -135q-4 -29 -4 -45zM203 731v8l2 2l4 4l2 3l4 10q16 10 53 63q29 41 60 99l4 10q4 6 14 16q4 2 12 4h4h3l100 2q2 -2 4 -2h6q2 0 4 -2t2 -4v-6v-2 v-2l-2 -2l-4 -4l-6 -8q-63 -86 -127 -142q-18 -16 -31 -26l-8 -9q-6 -10 -19.5 -15t-21.5 -5l-45 2q0 -2 -2 -2h-2q-4 4 -7 5t-3 3z" />
<glyph unicode="&#xe2;" horiz-adv-x="536" d="M-115 84q0 106 60 240q20 43 49 88q33 74 106 143q57 53 111 53q29 0 49 -14q8 -6 20.5 -16.5t24.5 -26.5h6q4 2 6 2q12 4 19.5 5t13.5 1h10q82 0 82 -51q0 -12 -26 -70q-76 -141 -113 -284q-6 -25 -6 -39t4 -23q12 -6 14 -6q14 0 43 31q57 61 107 143q6 10 14 23 q23 27 27 26q6 0 10 -2t10 -12q10 -16 11.5 -19.5t1.5 -5.5v-6q0 -12 -33 -71q-27 -49 -80 -115q-16 -23 -64 -68q-25 -14 -63 -14q-47 0 -68.5 27.5t-21.5 89.5v32q0 4 2 7v2q-78 -137 -168 -177q-29 -12 -53 -12q-49 0 -77 35t-28 84zM-8 70q0 -23 8 -23q0 -2 2 -2 q18 0 57 37q63 59 129 180q55 100 78 168q8 27 8 37v2q0 16 -7 23.5t-21 7.5q-31 0 -78 -47q-59 -59 -125 -203q-35 -74 -47 -135q-4 -29 -4 -45zM115 784v13q0 2 4 6l4 4h2l2 6q10 4 47 43q23 25 68 76l2 8q10 8 14 12h4h2h4l11 2h92q6 0 15 -5t22 -21l6 -2q6 -16 20 -35 q6 -12 18.5 -34.5t28.5 -59.5l4 -4q4 -8 5.5 -12.5t1.5 -6.5v-10q0 -2 -1.5 -4t-11.5 -6l-43 -21v-2h-4q-2 -2 -4 -2l-4 -2q-14 0 -23 23q-2 0 -2 2l-2 8q2 0 -4 6q-41 70 -74 119q-27 -31 -83 -92q-14 -14 -46 -43h-2v-2l-4 -5h-2q-2 -2 -2 -4q-4 -8 -10 -8h-2q-2 0 -2 2 h-2h-2q-2 0 -3 1t-5 3l-33 41z" />
<glyph unicode="&#xe3;" horiz-adv-x="536" d="M-115 84q0 106 60 240q20 43 49 88q33 74 106 143q57 53 111 53q29 0 49 -14q8 -6 20.5 -16.5t24.5 -26.5h6q4 2 6 2q12 4 19.5 5t13.5 1h10q82 0 82 -51q0 -12 -26 -70q-76 -141 -113 -284q-6 -25 -6 -39t4 -23q12 -6 14 -6q14 0 43 31q57 61 107 143q6 10 14 23 q23 27 27 26q6 0 10 -2t10 -12q10 -16 11.5 -19.5t1.5 -5.5v-6q0 -12 -33 -71q-27 -49 -80 -115q-16 -23 -64 -68q-25 -14 -63 -14q-47 0 -68.5 27.5t-21.5 89.5v32q0 4 2 7v2q-78 -137 -168 -177q-29 -12 -53 -12q-49 0 -77 35t-28 84zM-8 70q0 -23 8 -23q0 -2 2 -2 q18 0 57 37q63 59 129 180q55 100 78 168q8 27 8 37v2q0 16 -7 23.5t-21 7.5q-31 0 -78 -47q-59 -59 -125 -203q-35 -74 -47 -135q-4 -29 -4 -45zM115 766q0 53 41 91t94 38h10q27 0 37 -10l61 -33q4 -4 7 -4l6 -4q4 -4 10 -5t12 -1h8q29 0 43 26q10 12 29 27l45 2 q2 -2 4 -2q2 -2 4 -2v-6q0 -51 -34.5 -88t-83.5 -37h-13q-10 0 -26 8q-8 2 -19 4v2l-63 33q-8 0 -19.5 3t-15.5 3h-10q-29 0 -47.5 -24.5t-26.5 -24.5l-45 2l-2 -2q-2 0 -4 2q-2 0 -2 2z" />
<glyph unicode="&#xe4;" horiz-adv-x="536" d="M-115 84q0 106 60 240q20 43 49 88q33 74 106 143q57 53 111 53q29 0 49 -14q8 -6 20.5 -16.5t24.5 -26.5h6q4 2 6 2q12 4 19.5 5t13.5 1h10q82 0 82 -51q0 -12 -26 -70q-76 -141 -113 -284q-6 -25 -6 -39t4 -23q12 -6 14 -6q14 0 43 31q57 61 107 143q6 10 14 23 q23 27 27 26q6 0 10 -2t10 -12q10 -16 11.5 -19.5t1.5 -5.5v-6q0 -12 -33 -71q-27 -49 -80 -115q-16 -23 -64 -68q-25 -14 -63 -14q-47 0 -68.5 27.5t-21.5 89.5v32q0 4 2 7v2q-78 -137 -168 -177q-29 -12 -53 -12q-49 0 -77 35t-28 84zM-8 70q0 -23 8 -23q0 -2 2 -2 q18 0 57 37q63 59 129 180q55 100 78 168q8 27 8 37v2q0 16 -7 23.5t-21 7.5q-31 0 -78 -47q-59 -59 -125 -203q-35 -74 -47 -135q-4 -29 -4 -45zM133 795q0 39 26.5 71.5t63.5 32.5v2q14 -2 39 -16q12 -12 12 -39q0 -23 -8 -47q-25 -61 -84 -62q-18 0 -33.5 17.5 t-15.5 40.5zM354 795q0 39 27 71.5t63 32.5v2q55 -10 56 -55q0 -39 -29 -74t-68 -35q-18 0 -33.5 17.5t-15.5 40.5z" />
<glyph unicode="&#xe5;" horiz-adv-x="536" d="M-115 88q0 98 62 236q20 41 47 88q14 29 49 82q61 80 115 102q27 12 53 12q29 0 49 -14q8 -6 20.5 -16.5t24.5 -26.5h6q4 2 6 2q12 4 19.5 5t13.5 1h10q82 0 82 -51q0 -12 -26 -70q-76 -141 -113 -284q-6 -25 -6 -39t4 -23q12 -6 14 -6q14 0 43 31q57 61 107 143 q6 10 14 23q23 27 27 26q6 0 10 -2t10 -12q10 -16 11.5 -19.5t1.5 -5.5v-6q0 -12 -33 -71q-27 -49 -80 -115q-16 -23 -64 -68q-25 -14 -63 -14q-47 0 -68.5 27.5t-21.5 89.5v32q0 4 2 7v2q-78 -137 -168 -177q-29 -12 -53 -12q-49 0 -78 39q-27 33 -27 84zM-8 70 q0 -23 8 -23q0 -2 2 -2q18 0 57 37q63 59 129 180q55 100 78 168q8 27 8 37v2q0 16 -7 23.5t-21 7.5q-31 0 -78 -47q-59 -59 -125 -203q-35 -74 -47 -135q-4 -29 -4 -45zM162 811q0 63 45 109.5t108 46.5v2q70 -4 112 -47t42 -111t-44 -112t-110 -44t-109.5 46.5 t-43.5 109.5zM240 809q0 -35 22 -51q18 -25 53 -25q76 0 76 76q0 33 -20 57q-27 23 -56 23v2q-39 -6 -53 -27q-23 -16 -22 -55z" />
<glyph unicode="&#xe6;" horiz-adv-x="681" d="M-115 86q0 100 62 238q20 41 47 88q14 29 49 82q61 80 115 102q27 12 53 12q61 0 102 -73q51 100 99 122q16 6 37 7q12 0 27.5 -6.5t28.5 -13.5t38 -11q57 -16 57 -74q0 -127 -71.5 -231.5t-145.5 -104.5l-33 8q-18 10 -28 23q-16 -57 -17 -111q0 -53 18.5 -83.5 t47.5 -30.5q53 0 132 72.5t132 174.5q0 -8 8 17q25 49 39 49q29 0 29 -39q0 -16 -25 -65q-49 -96 -133 -179q-63 -63 -135 -84q-35 -10 -74 -10q-74 0 -111.5 40t-37.5 122v2q-47 -78 -103 -125q-55 -39 -102 -39q-49 0 -77 36t-28 85zM-8 70q0 -23 8 -23q0 -2 2 -2 q18 0 57 37q63 59 129 180q55 100 78 168q8 27 8 37v2q0 16 -7 23.5t-21 7.5q-31 0 -78 -47q-59 -59 -125 -203q-35 -74 -47 -135q-4 -29 -4 -45zM352 348q0 -27 10.5 -43t28.5 -16v2q35 -4 68 69.5t33 145.5v6q-2 2 -3.5 5t-13.5 18q-4 2 -8 2q-16 0 -41 -31 q-74 -86 -74 -158z" />
<glyph unicode="&#xe7;" horiz-adv-x="450" d="M-117 -305l15 31h2h2v2q4 8 12 8l10 -4q27 -10 56 -17l20 -4q20 -4 43 -4q80 0 80 64q0 25 -21 45q-18 14 -59 14h-41h-2v2h-2v2v2v14q0 2 2 3v2v4l41 141h65l-34 -117h18q98 0 121 -67q6 -23 6 -52q0 -125 -164 -124q-61 0 -114.5 14t-53.5 31l-2 6v4zM-72 121 q0 102 62 258q90 229 182 252q18 8 53 8h15q10 -2 14 -3t14 -3q20 -6 41 -23q35 -4 53.5 -32.5t18.5 -71.5q0 -55 -29 -129q-37 -88 -84 -88q-18 0 -36.5 16.5t-18.5 34.5q0 33 23 100q12 37 28 101v2l-8 2q-12 -4 -29 -13q-18 -14 -28 -28q-113 -139 -154 -326 q-12 -51 -12 -92q0 -49 14 -68.5t49 -19.5q80 0 172 88q72 70 125 162q29 49 33 49q23 0 31 -12q2 -4 4 -6l4 -7v-6q0 -16 -19 -53q-39 -88 -112 -164q-63 -66 -148 -92q-39 -12 -77 -12q-86 0 -129 47q-51 39 -52 129z" />
<glyph unicode="&#xe8;" horiz-adv-x="407" d="M-82 139q0 143 94 350q43 94 84 136q14 14 25 20q23 18 49 19q16 0 29.5 -6.5t27.5 -16.5q12 -2 35 -8q61 -16 62 -74q0 -119 -71 -227.5t-149 -108.5q2 0 -30 8q-16 8 -31 23v2q-12 -98 -12 -82v-31q0 -115 59 -114q55 0 135 71.5t131 173.5q2 2 15 27q20 41 30 41h7 q2 0 6 -1t11 -11.5t7 -26.5q0 -25 -22 -65q-92 -168 -203 -234q-66 -39 -137 -39q-68 0 -110 44t-42 130zM78 348q0 -29 9 -44t30 -15v2q33 -4 65 69q23 49 29 109q2 18 2 37v6q0 2 -1 6t-5 8l-2 4q-8 6 -17 7q-16 0 -41 -31q-70 -86 -69 -158zM96 936v2q0 12 10 12h9l94 2 q2 0 6 -2t7 -5t8.5 -10t5.5 -11l2 -4q20 -92 71 -168l6 -7v-2q0 -2 2 -2v-2l2 -2v-6v-2l-4 -4h-2h-4q-2 -2 -4 -2h-4l-43 2q-2 -2 -6 0l-12 4l-7 8q-4 2 -8 8l-4 9q-8 8 -51 65.5t-66 102.5l-6 12q-2 0 -2 2z" />
<glyph unicode="&#xe9;" horiz-adv-x="407" d="M-82 139q0 143 94 350q43 94 84 136q14 14 25 20q23 18 49 19q16 0 29.5 -6.5t27.5 -16.5q12 -2 35 -8q61 -16 62 -74q0 -119 -71 -227.5t-149 -108.5q2 0 -30 8q-16 8 -31 23v2q-12 -98 -12 -82v-31q0 -115 59 -114q55 0 135 71.5t131 173.5q2 2 15 27q20 41 30 41h7 q2 0 6 -1t11 -11.5t7 -26.5q0 -25 -22 -65q-92 -168 -203 -234q-66 -39 -137 -39q-68 0 -110 44t-42 130zM78 348q0 -29 9 -44t30 -15v2q33 -4 65 69q23 49 29 109q2 18 2 37v6q0 2 -1 6t-5 8l-2 4q-8 6 -17 7q-16 0 -41 -31q-70 -86 -69 -158zM139 735v4l2 2l4 4l2 3l7 10 q12 8 51 63q29 41 59 99l4 10q4 10 33 20l100 2q4 0 11.5 -4t7.5 -10v-2h-2v-2l-2 -2v-2l-2 -2l-8 -8q-82 -106 -156 -168l-8 -9q-8 -8 -21 -14q-4 -4 -8 -5t-6 -1h-6l-45 2q-4 -2 -6 0q-10 2 -11 10z" />
<glyph unicode="&#xea;" horiz-adv-x="407" d="M-82 139q0 143 94 350q43 94 84 136q14 14 25 20q23 18 49 19q16 0 29.5 -6.5t27.5 -16.5q12 -2 35 -8q61 -16 62 -74q0 -119 -71 -227.5t-149 -108.5q2 0 -30 8q-16 8 -31 23v2q-12 -98 -12 -82v-31q0 -115 59 -114q55 0 135 71.5t131 173.5q2 2 15 27q20 41 30 41h7 q2 0 6 -1t11 -11.5t7 -26.5q0 -25 -22 -65q-92 -168 -203 -234q-66 -39 -137 -39q-68 0 -110 44t-42 130zM51 788v9q0 2 4 6l4 4h2l5 6q6 2 45 43q23 27 67 76l2 8q2 0 4 2l2 2q0 2 2 4h2q4 4 9 4h8l8 2h92q6 0 19 -6q2 0 6 -2l6 -8q2 -4 6 -10l6 -2q10 -16 21 -35l20 -37 q20 -37 29 -57l4 -4q0 -4 2 -5q0 -6 2 -10v-14q0 -2 -1 -4t-9 -6l-43 -21l-2 -2h-2q-4 -2 -6 -2l-5 -2q-14 0 -22 23v2l-2 8l-6 6q-37 70 -74 119q-27 -31 -84 -92q-14 -14 -45 -43h-2q-2 -4 -2 -5l-6 -6q-4 -8 -11 -8h-2q-2 0 -2 2h-2h-2q-2 0 -3 1t-5 3l-33 41q-4 0 -5 4 t-1 6zM78 348q0 -29 9 -44t30 -15v2q33 -4 65 69q23 49 29 109q2 18 2 37v6q0 2 -1 6t-5 8l-2 4q-8 6 -17 7q-16 0 -41 -31q-70 -86 -69 -158z" />
<glyph unicode="&#xeb;" horiz-adv-x="407" d="M-82 139q0 143 94 350q43 94 84 136q14 14 25 20q23 18 49 19q16 0 29.5 -6.5t27.5 -16.5q12 -2 35 -8q61 -16 62 -74q0 -119 -71 -227.5t-149 -108.5q2 0 -30 8q-16 8 -31 23v2q-12 -98 -12 -82v-31q0 -115 59 -114q55 0 135 71.5t131 173.5q2 2 15 27q20 41 30 41h7 q2 0 6 -1t11 -11.5t7 -26.5q0 -25 -22 -65q-92 -168 -203 -234q-66 -39 -137 -39q-68 0 -110 44t-42 130zM72 795q0 41 25.5 72.5t64.5 31.5v2q29 -4 40 -17.5t11 -37.5q0 -63 -57 -98q-16 -10 -35 -11q-20 0 -34.5 16.5t-14.5 41.5zM78 348q0 -29 9 -44t30 -15v2 q33 -4 65 69q23 49 29 109q2 18 2 37v6q0 2 -1 6t-5 8l-2 4q-8 6 -17 7q-16 0 -41 -31q-70 -86 -69 -158zM293 795q0 41 25.5 72.5t64.5 31.5v2q27 -4 40 -15.5t13 -39.5q0 -41 -27.5 -75t-68.5 -34q-20 0 -33.5 15.5t-13.5 42.5z" />
<glyph unicode="&#xec;" horiz-adv-x="305" d="M-55 147q0 109 43 261l14 45q12 43 29 61q25 41 96 41q18 0 28.5 -6t10.5 -27q0 -2 -14 -41q-4 -14 -17 -41l-12 -34q-84 -238 -84 -293q0 -45 35 -45q25 0 73 49q43 43 99 131q6 12 16 31q18 33 27 32q8 0 22.5 -11t14.5 -28q0 -4 -35 -65q-10 -14 -29 -45 q-74 -143 -153 -170q-25 -8 -54 -8q-82 0 -104 94q-6 31 -6 69zM16 936v2q0 12 11 12h8l92 2q6 -2 16 -8q2 -2 7.5 -9t5.5 -11l2 -4q20 -92 71 -168l7 -7v-2q0 -2 2 -2v-2l2 -2v-6v-2l-4 -4h-3h-4q-2 -2 -4 -2h-4l-43 2q-4 -2 -8 0q-6 2 -10 4l-6 8q-4 2 -9 8l-4 9 q-8 8 -51 65.5t-65 102.5l-7 12q-2 0 -2 2z" />
<glyph unicode="&#xed;" horiz-adv-x="305" d="M-55 147q0 109 43 261l14 45q12 43 29 61q25 41 96 41q18 0 28.5 -6t10.5 -27q0 -2 -14 -41q-4 -14 -17 -41l-12 -34q-84 -238 -84 -293q0 -45 35 -45q25 0 73 49q43 43 99 131q6 12 16 31q18 33 27 32q8 0 22.5 -11t14.5 -28q0 -4 -35 -65q-10 -14 -29 -45 q-74 -143 -153 -170q-25 -8 -54 -8q-82 0 -104 94q-6 31 -6 69zM59 735v4l2 2l5 4l2 3l6 10q14 10 51 63q29 41 59 99l4 10q4 10 33 20l101 2q4 0 11 -4t7 -10v-2h-2v-2l-2 -2v-2l-2 -2l-8 -8q-82 -106 -156 -168l-8 -9q-8 -8 -21 -14q-18 -6 -20 -6l-45 2q-4 -2 -6 0 q-10 2 -11 10z" />
<glyph unicode="&#xee;" horiz-adv-x="305" d="M-55 147q0 109 43 261l14 45q12 43 29 61q25 41 96 41q18 0 28.5 -6t10.5 -27q0 -2 -14 -41q-4 -14 -17 -41l-12 -34q-84 -238 -84 -293q0 -45 35 -45q25 0 73 49q43 43 99 131q6 12 16 31q18 33 27 32q8 0 22.5 -11t14.5 -28q0 -4 -35 -65q-10 -14 -29 -45 q-74 -143 -153 -170q-25 -8 -54 -8q-82 0 -104 94q-6 31 -6 69zM-25 788v9q0 2 5 6l2 4h4l2 6q4 0 43 43q23 27 67 76l2 8l15 12h4h8l8 2h92q6 0 19 -6q4 -2 18 -20l6 -2q10 -16 21 -35l20 -37q10 -18 29 -57l2 -4q2 -4 6 -15v-14q0 -2 -1 -4t-9 -6l-43 -21l-2 -2h-2 q-4 -2 -6 -2l-4 -2q-14 0 -23 23q-2 0 -2 2v8l-6 6q-37 70 -74 119q-27 -31 -84 -92q-14 -14 -45 -43h-2q-2 -4 -2 -5l-6 -6q-4 -8 -10 -8h-2q-2 0 -2 2h-3h-2q-2 0 -3 1t-5 3l-30 41q-2 2 -3.5 5t-1.5 5z" />
<glyph unicode="&#xef;" horiz-adv-x="305" d="M-55 147q0 109 43 261l14 45q12 43 29 61q25 41 96 41q18 0 28.5 -6t10.5 -27q0 -2 -14 -41q-4 -14 -17 -41l-12 -34q-84 -238 -84 -293q0 -45 35 -45q25 0 73 49q43 43 99 131q6 12 16 31q18 33 27 32q8 0 22.5 -11t14.5 -28q0 -4 -35 -65q-10 -14 -29 -45 q-74 -143 -153 -170q-25 -8 -54 -8q-82 0 -104 94q-6 31 -6 69zM-4 795q0 47 24.5 75.5t61.5 28.5v2q29 -4 39 -16.5t10 -38.5q0 -23 -8 -47q-25 -61 -82 -62q-20 0 -37 17q-8 16 -8 41zM213 795q0 39 24.5 71.5t63.5 32.5v2q55 -8 55 -55q0 -41 -28.5 -75t-67.5 -34 q-20 0 -33.5 15.5t-13.5 42.5z" />
<glyph unicode="&#xf0;" horiz-adv-x="501" d="M-225 -348q0 18 8 28.5t20 10.5q6 0 27 -21l8 -16l12 -4q6 -2 12.5 -4t25 -6.5t44.5 -4.5q102 0 158 64q18 37 41 131q25 102 66 297v2q-37 -51 -52 -70q-35 -43 -61 -61q-41 -39 -84 -39t-78 39q-31 27 -31 96q0 80 46 197q49 125 108 203q55 72 98 84q14 4 29 4 q35 0 86 -35q16 -12 37 -29q16 2 37 8h14q37 0 55.5 -16t18.5 -43q0 -6 -19 -45q-72 -152 -129 -393q-18 -92 -57 -277q-29 -113 -115 -155q-68 -33 -151 -33q-78 0 -126 23.5t-48 64.5zM-37 68q4 -27 14.5 -39.5t22.5 -12.5t20 4q25 25 72 78q35 49 64 97l4 6q59 96 88 178 q10 33 10 53q0 47 -45 47q-27 0 -70 -47q-82 -90 -129 -199q-49 -117 -49 -167zM106 895v25q0 8 3.5 12t13.5 8l57 2q12 -4 20.5 -49t69.5 -45q78 0 108 46t34 46v2h57q4 0 7 -3t3 -5v-8q0 -117 -133 -164q-39 -14 -86 -14q-70 0 -112 39.5t-42 107.5z" />
<glyph unicode="&#xf1;" horiz-adv-x="524" d="M-82 68q0 57 31 180q35 141 80 250q27 66 73 65q63 0 64 -45q0 -4 -4 -10l-10 -21q-82 -164 -117 -366q63 125 207 366q74 109 112 109q33 0 60.5 -19.5t27.5 -52.5q0 -14 -10 -24l-8 -8l-14 -13q-6 -4 -7.5 -4t-19.5 -43q-6 -16 -18 -53l-13 -35q-16 -63 -43 -194 q-4 -25 -4 -41q0 -20 7 -33t16 -13q31 0 121 152q14 23 32 59q8 23 29 23q10 0 26.5 -12.5t16.5 -26.5t-47 -104q-66 -127 -123 -158q-12 -6 -23 -12q-25 -10 -43 -11q-45 0 -79 39q-27 39 -27 117q0 80 31 217v2q-55 -96 -119 -215q-78 -150 -123 -149q-33 0 -57.5 20.5 t-24.5 63.5zM74 766q0 53 41 91t94 38h10q27 0 37 -10l61 -33q4 -4 7 -4l6 -4q4 -4 10 -5t12 -1h8q29 0 43 26q10 12 29 27l45 2q2 -2 4 -2q2 -2 4 -2v-6q0 -51 -34.5 -88t-83.5 -37h-13q16 0 -45 12v2l-63 33q-8 0 -19.5 3t-15.5 3h-10q-29 0 -47.5 -24.5t-26.5 -24.5 l-45 2l-2 -2q-2 0 -4 2q-2 0 -2 2z" />
<glyph unicode="&#xf2;" horiz-adv-x="471" d="M-82 106q0 61 33 162q45 139 117 224q31 37 61 49q14 6 29 6q45 0 59 -37v2q0 -2 2 -2l2 2h8q4 0 9 2h16q68 0 90 -92q6 -31 6 -68q43 12 74 46t61 67q12 12 21 12q33 0 33 -26q0 -20 -21 -50q-6 -10 -16 -20q-76 -109 -164 -125q-49 -164 -115.5 -238.5t-161.5 -74.5 q-63 0 -103 42t-40 119zM33 94v2q0 -35 8 -49t35 -14q51 0 113.5 114.5t62.5 227.5q0 20 -10 41q-10 14 -29 14q-51 0 -115.5 -115.5t-64.5 -220.5zM92 936v2q0 12 10 12h9l94 2q6 -2 14 -8q2 -2 7 -9t5 -11l2 -4q20 -92 72 -168l6 -7v-2q0 -2 2 -2v-2l2 -2v-6v-2l-4 -4h-2 h-4q-2 -2 -4 -2h-4l-41 2q-4 -2 -8 0l-12 4l-7 8q-4 2 -8 8l-4 9q-18 25 -49 65q-45 57 -68 103l-6 12q-2 0 -2 2z" />
<glyph unicode="&#xf3;" horiz-adv-x="471" d="M-82 106q0 61 33 162q45 139 117 224q31 37 61 49q14 6 29 6q45 0 59 -37v2q0 -2 2 -2l2 2h8q4 0 9 2h16q68 0 90 -92q6 -31 6 -68q43 12 74 46t61 67q12 12 21 12q33 0 33 -26q0 -20 -21 -50q-6 -10 -16 -20q-76 -109 -164 -125q-49 -164 -115.5 -238.5t-161.5 -74.5 q-63 0 -103 42t-40 119zM33 94v2q0 -35 8 -49t35 -14q51 0 113.5 114.5t62.5 227.5q0 20 -10 41q-10 14 -29 14q-51 0 -115.5 -115.5t-64.5 -220.5zM135 735v4l2 2l4 4l2 3l7 10q12 8 51 63q29 41 59 99l4 10q4 10 33 20l100 2q4 0 11.5 -4t7.5 -10v-2h-2v-2l-2 -2v-2l-2 -2 l-9 -8q-82 -106 -155 -168l-8 -9q-8 -8 -21 -14q-4 -4 -8 -5t-6 -1h-6l-45 2q-4 -2 -7 0q-10 2 -10 10z" />
<glyph unicode="&#xf4;" horiz-adv-x="471" d="M-82 106q0 61 33 162q45 139 117 224q31 37 61 49q14 6 29 6q45 0 59 -37v2q0 -2 2 -2l2 2h8q4 0 9 2h16q68 0 90 -92q6 -31 6 -68q43 12 74 46t61 67q12 12 21 12q33 0 33 -26q0 -20 -21 -50q-6 -10 -16 -20q-76 -109 -164 -125q-49 -164 -115.5 -238.5t-161.5 -74.5 q-63 0 -103 42t-40 119zM33 94v2q0 -35 8 -49t35 -14q51 0 113.5 114.5t62.5 227.5q0 20 -10 41q-10 14 -29 14q-51 0 -115.5 -115.5t-64.5 -220.5zM47 788v9q0 2 4 6l4 4h2l4 6q10 4 47 41t66 78l2 8h2l2 2l4 4q2 2 5.5 4t7.5 2h6l10 2h90q6 0 19 -6q2 0 6 -2l6 -8 q2 -4 6 -10l6 -2q10 -16 21 -35l20 -37q20 -37 29 -57l4 -4q0 -4 2 -5q0 -6 2 -10v-2q0 -2 2 -4v-2v-4v-2l-2 -2v-2q-2 -2 -10 -6l-43 -21l-2 -2h-2q-4 -2 -7 -2l-4 -2q-14 0 -22 23v2l-2 8l-6 6q-29 55 -72 119l-45 -49q-23 -25 -68 -72q-12 -10 -16 -14h-4q-2 -4 -2 -5 l-6 -6q-4 -8 -11 -8h-2q-2 0 -2 2h-2h-2q-2 0 -3 1t-5 3l-33 41q-4 0 -5 4t-1 6z" />
<glyph unicode="&#xf5;" horiz-adv-x="471" d="M-82 106q0 61 33 162q45 139 117 224q31 37 61 49q14 6 29 6q45 0 59 -37v2q0 -2 2 -2l2 2h8q4 0 9 2h16q68 0 90 -92q6 -31 6 -68q43 12 74 46t61 67q12 12 21 12q33 0 33 -26q0 -20 -21 -50q-6 -10 -16 -20q-76 -109 -164 -125q-49 -164 -115.5 -238.5t-161.5 -74.5 q-63 0 -103 42t-40 119zM33 94v2q0 -35 8 -49t35 -14q51 0 113.5 114.5t62.5 227.5q0 20 -10 41q-10 14 -29 14q-51 0 -115.5 -115.5t-64.5 -220.5zM47 766q0 45 40 87t95 42h11q23 0 38 -10l62 -33q4 -8 15 -11t18 -3h10q20 0 33.5 15t25.5 32q6 6 13 6l45 2q0 -2 2 -2h2 q0 -2 2 -2l2 -2v-2v-2q0 -49 -36 -87t-85 -38h-12q-8 0 -22.5 5t-20.5 7v2l-66 33q-8 0 -19.5 3t-15.5 3h-10q-29 0 -47 -24.5t-27 -24.5l-45 2l-2 -2q-2 0 -4 2q-2 0 -2 2z" />
<glyph unicode="&#xf6;" horiz-adv-x="471" d="M-82 106q0 61 33 162q45 139 117 224q31 37 61 49q14 6 29 6q45 0 59 -37v2q0 -2 2 -2l2 2h8q4 0 9 2h16q68 0 90 -92q6 -31 6 -68q43 12 74 46t61 67q12 12 21 12q33 0 33 -26q0 -20 -21 -50q-6 -10 -16 -20q-76 -109 -164 -125q-49 -164 -115.5 -238.5t-161.5 -74.5 q-63 0 -103 42t-40 119zM33 94v2q0 -35 8 -49t35 -14q51 0 113.5 114.5t62.5 227.5q0 20 -10 41q-10 14 -29 14q-51 0 -115.5 -115.5t-64.5 -220.5zM68 795q0 41 25.5 72.5t64.5 31.5v2q29 -4 40 -17.5t11 -37.5q0 -63 -57 -98q-16 -10 -35 -11q-23 0 -36 15.5t-13 42.5z M289 795q0 41 25.5 72.5t64.5 31.5v2q27 -4 40 -15.5t13 -39.5q0 -39 -27.5 -74t-66.5 -35q-23 0 -36 15.5t-13 42.5z" />
<glyph unicode="&#xf7;" horiz-adv-x="1705" d="M254 553v117h1196v-117h-1196zM737 248q0 45 35 79.5t80 34.5v3q47 -4 82 -37t35 -80t-35 -82t-82 -35t-81 35t-34 82zM737 969q0 47 34 79.5t81 32.5v2q49 -4 83 -35.5t34 -78.5t-35 -82t-82 -35t-81 35t-34 82z" />
<glyph unicode="&#xf8;" horiz-adv-x="471" d="M-92 -174q0 14 12 45q10 25 53 98l-14 15q-20 27 -27 34q-6 16 -12 43q-2 20 -2 45q0 59 33 160q47 141 117 226q31 37 61 49q14 6 29 6q49 0 57 -37v2q2 -2 4 0q4 2 6 2h6h9h2h2q0 -2 2 -2q70 141 98 141q18 0 27.5 -9t9.5 -21q0 -20 -16 -54q-8 -16 -21 -37l-31 -49 q37 -45 37 -131q55 20 99.5 73.5t56.5 53.5q33 0 33 -26q0 -20 -21 -50q-6 -10 -16 -20q-76 -109 -164 -125q-47 -162 -114.5 -237.5t-162.5 -75.5h-2h-6q-8 2 -11 3t-5 1q-18 -51 -57 -133q-20 -29 -37 -29q-16 0 -25.5 11.5t-9.5 27.5zM33 94v2q0 -35 8 -49t35 -14 q51 0 113.5 114.5t62.5 227.5q0 20 -10 41q-10 14 -29 14q-51 0 -115.5 -115.5t-64.5 -220.5z" />
<glyph unicode="&#xf9;" horiz-adv-x="557" d="M-57 117q0 129 75 334q31 88 62 133q6 8 15 15t32 7q27 0 47.5 -18.5t20.5 -46.5v-4q0 -2 -2 -5v-4q-2 -2 -3.5 -4t-6.5 -8t-7 -8q-59 -123 -95 -230.5t-36 -164.5q0 -18 8 -43q6 -14 29 -15q41 0 98 111q49 96 146 348q4 39 22.5 59.5t42.5 20.5q27 0 52.5 -19.5 t25.5 -46.5q0 -4 -23 -51q-106 -223 -106 -377q0 -23 6 -39t10 -16q33 0 70 51q31 43 86 158q0 8 4 12q12 31 31 31q12 0 28.5 -12.5t16.5 -26.5q0 -6 -14 -43q-47 -106 -95 -164q-31 -45 -65 -61q-33 -23 -74 -23q-43 0 -78 39t-35 105q2 4 2 10v12q2 12 7 35v2 q-70 -143 -138 -174q-25 -10 -47 -10q-41 0 -59 18q-8 4 -16 16q-37 37 -37 97zM170 936v2q0 12 10 12h8l95 2q6 -2 14 -6t12 -22l2 -4q16 -41 47 -125q8 -14 25 -43l6 -7q2 -4 4 -4v-2v-2v-6v-2q0 -2 -4 -4h-4q-2 -2 -4 -2h-4l-43 2q-4 -2 -8 0q-6 2 -11.5 5t-15.5 15l-2 9 q-8 8 -51 65q-49 66 -68 103l-6 12q-2 0 -2 2z" />
<glyph unicode="&#xfa;" horiz-adv-x="557" d="M-57 117q0 129 75 334q31 88 62 133q6 8 15 15t32 7q27 0 47.5 -18.5t20.5 -46.5v-4q0 -2 -2 -5v-4q-2 -2 -3.5 -4t-6.5 -8t-7 -8q-59 -123 -95 -230.5t-36 -164.5q0 -18 8 -43q6 -14 29 -15q41 0 98 111q49 96 146 348q4 39 22.5 59.5t42.5 20.5q27 0 52.5 -19.5 t25.5 -46.5q0 -4 -23 -51q-106 -223 -106 -377q0 -23 6 -39t10 -16q33 0 70 51q31 43 86 158q0 8 4 12q12 31 31 31q12 0 28.5 -12.5t16.5 -26.5q0 -6 -14 -43q-47 -106 -95 -164q-31 -45 -65 -61q-33 -23 -74 -23q-43 0 -78 39t-35 105q2 4 2 10v12q2 12 7 35v2 q-70 -143 -138 -174q-25 -10 -47 -10q-41 0 -59 18q-8 4 -16 16q-37 37 -37 97zM213 735q0 2 2 4l2 2l4 4v3l6 10q14 8 54.5 66.5t58.5 95.5l2 10q6 10 35 20l98 2q18 -10 19 -14v-2l-2 -2v-2l-5 -4l-8 -8q-63 -90 -155 -168l-9 -9l-10 -10q-2 0 -5 -2t-5 -2q-12 -6 -21 -6 l-45 2q-4 -2 -6 0q-10 2 -10 10z" />
<glyph unicode="&#xfb;" horiz-adv-x="557" d="M-57 117q0 129 75 334q31 88 62 133q6 8 15 15t32 7q27 0 47.5 -18.5t20.5 -46.5v-4q0 -2 -2 -5v-4q-2 -2 -3.5 -4t-6.5 -8t-7 -8q-59 -123 -95 -230.5t-36 -164.5q0 -18 8 -43q6 -14 29 -15q41 0 98 111q49 96 146 348q4 39 22.5 59.5t42.5 20.5q27 0 52.5 -19.5 t25.5 -46.5q0 -4 -23 -51q-106 -223 -106 -377q0 -23 6 -39t10 -16q33 0 70 51q31 43 86 158q0 8 4 12q12 31 31 31q12 0 28.5 -12.5t16.5 -26.5q0 -6 -14 -43q-47 -106 -95 -164q-31 -45 -65 -61q-33 -23 -74 -23q-43 0 -78 39t-35 105q2 4 2 10v12q2 12 7 35v2 q-70 -143 -138 -174q-25 -10 -47 -10q-41 0 -59 18q-8 4 -16 16q-37 37 -37 97zM127 784v13q0 2 2 5t4 5h2l4 6q10 4 47 43q23 25 68 76l2 8q10 8 14 12h4h2h5l10 2h92q6 0 15.5 -5t21.5 -21l6 -2q6 -16 20 -35q6 -12 18.5 -34.5t29.5 -59.5l4 -4q4 -8 5 -12.5t1 -6.5v-10 q0 -4 -12 -10l-43 -21v-2h-5q-4 -4 -10 -4q-12 0 -20 23q-2 0 -2 2l-2 8q2 0 -4 6q-41 70 -74 119q-27 -31 -84 -92q-8 -8 -22.5 -21.5t-22.5 -21.5h-2l-7 -10q-8 -9 -14 -9q-2 0 -2 2h-2h-2q-2 0 -3 1t-5 3l-35 41q-4 4 -4 6z" />
<glyph unicode="&#xfc;" horiz-adv-x="557" d="M-57 117q0 129 75 334q31 88 62 133q6 8 15 15t32 7q27 0 47.5 -18.5t20.5 -46.5v-4q0 -2 -2 -5v-4q-2 -2 -3.5 -4t-6.5 -8t-7 -8q-59 -123 -95 -230.5t-36 -164.5q0 -18 8 -43q6 -14 29 -15q41 0 98 111q49 96 146 348q4 39 22.5 59.5t42.5 20.5q27 0 52.5 -19.5 t25.5 -46.5q0 -4 -23 -51q-106 -223 -106 -377q0 -23 6 -39t10 -16q33 0 70 51q31 43 86 158q0 8 4 12q12 31 31 31q12 0 28.5 -12.5t16.5 -26.5q0 -6 -14 -43q-47 -106 -95 -164q-31 -45 -65 -61q-33 -23 -74 -23q-43 0 -78 39t-35 105q2 4 2 10v12q2 12 7 35v2 q-70 -143 -138 -174q-25 -10 -47 -10q-41 0 -59 18q-8 4 -16 16q-37 37 -37 97zM145 795q0 39 27 71.5t64 32.5v2q14 -2 38 -16q12 -12 13 -39q0 -23 -8 -47q-25 -61 -84 -62q-18 0 -34 17.5t-16 40.5zM367 795q0 39 26.5 71.5t63.5 32.5v2q14 -2 39 -16q16 -12 16 -39 q0 -39 -28.5 -74t-67.5 -35q-18 0 -33.5 17.5t-15.5 40.5z" />
<glyph unicode="&#xfd;" horiz-adv-x="305" d="M-55 147q0 109 43 261l14 45q12 43 29 61q25 41 96 41q18 0 28.5 -6t10.5 -27q0 -2 -14 -41q-4 -14 -17 -41l-12 -34q-84 -238 -84 -293q0 -45 35 -45q25 0 73 49q43 43 99 131q6 12 16 31q18 33 27 32q8 0 22.5 -11t14.5 -28q0 -4 -35 -65q-10 -14 -29 -45 q-74 -143 -153 -170q-25 -8 -54 -8q-82 0 -104 94q-6 31 -6 69z" />
<glyph unicode="&#xfe;" horiz-adv-x="339" d="M-195 31q0 2 5 10l16 20q174 242 244 570v14q0 2 2 4v2q0 25 10 41.5t35 16.5t61.5 -22.5t36.5 -39.5v-2q-2 -4 -6 -8q-82 -102 -82 -252q0 -74 30.5 -190.5t30.5 -159.5q0 -51 -29.5 -91t-66.5 -40t-96 51q-68 47 -102 59l-3 2q-2 -6 -16 -14q-37 -18 -43 -18 q-16 0 -21.5 8t-5.5 39zM-170 -305l14 31h2h2v2q4 8 13 8l10 -4q61 -25 125 -25q29 0 51.5 18.5t22.5 45.5q0 25 -21 45q-18 14 -53 14h-45q-2 0 -6 4v2v12v2l2 3v2q2 2 2 4l41 141h63l-35 -117h21q127 0 127 -119q0 -90 -94 -116q-31 -8 -72 -8q-68 0 -113 14 q-55 10 -55 31l-2 6v4zM-61 86q12 -6 27.5 -13t39.5 -20q37 -12 78 -24q0 16 -21 112q-12 61 -24 148q-43 -119 -98 -205z" />
<glyph unicode="&#xff;" horiz-adv-x="485" d="M-248 -213q0 27 12 39q6 10 33 10t35 -57q2 -10 8 -31q57 -49 160 -49h18q12 0 33 4q51 27 107 336l22 131q-47 -106 -112 -137q-20 -10 -37 -10q-8 0 -15 2l-12 4q-2 2 -4 7t-8 11q-27 23 -35 44.5t-8 66.5q0 152 51 286q53 143 113 144q25 0 49 -19q14 -8 19 -17t5 -17 t-5 -15.5t-17 -11.5q-70 -135 -105 -297q-8 -39 -8 -68q0 -6 4 -12t11 -6q25 0 102 127q72 117 129 280q0 -6 8 43q12 70 72 70q33 0 50 -11t22 -32q2 -2 8 -12q0 -2 2 -5t2 -5v-5q-2 -8 -8 -20q-2 -4 -9 -8l-12 -8q-111 -201 -153 -461l-43 -262q-18 -61 -74 -115.5 t-119 -71.5q-35 -14 -82 -14q-94 0 -168 96q-41 33 -41 76zM74 795q0 41 25.5 72.5t64.5 31.5v2q29 -4 39 -16.5t10 -38.5q0 -23 -8 -47q-25 -61 -82 -62q-20 0 -34.5 16.5t-14.5 41.5zM295 795q0 39 24.5 71.5t63.5 32.5v2q55 -8 55 -55q0 -41 -27.5 -75t-68.5 -34 q-20 0 -33.5 15.5t-13.5 42.5z" />
<glyph unicode="&#x152;" horiz-adv-x="1662" d="M35 346q0 139 53 281q55 150 166 303t235.5 251.5t202.5 98.5q39 0 64 -14q16 -6 69 -49q94 -18 133 -58q49 -41 66 -119l2 19q10 86 70 143q49 47 131 47q90 0 268 -20q76 -4 221 -21q6 -2 13.5 -7t7.5 -15q0 -53 -248 -72l-166 -12q-78 -6 -133 -15q-39 -102 -117 -372 q-23 -78 -47 -168l125 12q152 12 279 12q55 0 77.5 -9t22.5 -36q0 -51 -47 -59q-152 -8 -330 -33l-164 -22v2q-14 -51 -26 -92l-23 -76q-10 -41 -35 -121q109 14 195 25l143 14q119 12 164 12q78 0 94 -20q6 -8 6 -19q0 -35 -88 -51q-14 -4 -30 -4q-109 -20 -316 -70 q-178 -43 -221 -43q-35 0 -62.5 30t-27.5 75q0 18 6 49q6 39 8 49q-119 -213 -342 -213q-66 0 -162 33q-238 82 -237 354zM174 313v2q0 -117 56.5 -183t160.5 -66q100 0 199 67q152 104 246 326q102 240 102 452q0 168 -92 215q-31 14 -72 15q-82 0 -147 -47 q-78 -45 -156 -136q-121 -139 -201 -299q-96 -193 -96 -346z" />
<glyph unicode="&#x153;" horiz-adv-x="700" d="M-82 106q0 61 33 162q45 139 117 224q31 37 61 49q14 6 29 6q45 0 59 -37h2l2 2h8q4 0 9 2h16q18 0 29 -6q20 -10 28 -25q27 63 45 95q35 57 70 75q20 10 41 11h8q6 -2 8 -2t9 -5q16 -4 28 -16q12 -4 37 -8q59 -16 59 -74q0 -125 -72.5 -230.5t-146.5 -105.5q2 0 -30 8 q-18 10 -29 23v2l-8 -39q0 -6 -3 -18.5t-3 -24.5v-31q0 -115 61 -114q55 0 135 71.5t131 173.5q2 2 15 27q20 41 30 41q29 0 29 -39q0 -25 -23 -65q-84 -154 -202 -236q-74 -37 -146 -37q-82 0 -118 74q-57 -61 -89 -74q-31 -20 -86 -20q-63 0 -103 42t-40 119zM33 94v2 q0 -35 8 -49t35 -14q51 0 113.5 114.5t62.5 227.5q0 20 -10 41q-10 14 -29 14q-51 0 -115.5 -115.5t-64.5 -220.5zM371 348q0 -29 9 -44t30 -15v2q33 -4 65.5 69.5t32.5 145.5v6q-2 2 -3 5t-5 9l-2 4q-8 6 -17 7q-16 0 -41 -31q-70 -86 -69 -158z" />
<glyph unicode="&#x178;" horiz-adv-x="806" d="M178 70q0 39 35 170q12 47 43 139l49 156q-49 213 -78 376q-27 152 -26 246q0 80 80 80q68 0 94 -266q23 -223 39 -338v2q221 334 358 504q156 190 201 190q23 0 37 -16.5t14 -40.5q0 -10 -123 -164q-135 -168 -223 -289l-45 -57q-135 -172 -193 -324q-45 -117 -94 -321 q-35 -139 -80 -140q-27 0 -61 25q-27 31 -27 68zM479 1458q0 37 26.5 72t63.5 35v2q27 -4 39.5 -18.5t12.5 -39.5q0 -23 -9 -47q-23 -59 -84 -59q-20 0 -34 14q-14 25 -15 41zM700 1458q0 37 27 72t64 35v2q25 -4 40 -17q14 -18 15 -41q0 -41 -29 -73.5t-67 -32.5 q-20 0 -35 14q-14 25 -15 41z" />
<glyph unicode="&#x2c6;" d="M322 766q0 45 39.5 87t95.5 42h10q20 0 39 -10l59 -33q4 -2 13 -6l10 -6q6 -2 12 -2h8q29 0 43 26q10 12 31 27l43 2q2 -2 4 -2q2 -2 4 -2v-6q0 -53 -35.5 -89t-83.5 -36h-12q-10 0 -27 8q-8 2 -18 4v2l-63 33q-8 0 -19.5 3t-15.5 3h-10q-29 0 -47.5 -24.5t-26.5 -24.5 l-45 2l-2 -2q-2 0 -4 2q-2 0 -2 2z" />
<glyph unicode="&#x2dc;" d="M322 784v13q0 2 4 6l4 4h2l4 6q8 4 45 43q23 25 68 76l2 8q10 8 14 12h4h2h4l10 2h93q6 0 18 -6q4 -2 18 -20l7 -2q6 -16 20 -35q6 -12 18.5 -34.5t28.5 -59.5l4 -4q2 -4 6 -15v-14q0 -2 -1 -4t-11 -6l-43 -21v-2h-4q-2 -2 -4 -2l-4 -2q-14 0 -23 23q-2 0 -2 2l-2 8 q2 0 -4 6q-41 70 -74 119q-27 -31 -84 -92q-14 -14 -45 -43h-2v-2l-4 -5h-2q-2 -2 -2 -4q-4 -8 -10 -8h-2q-2 0 -2 2h-2h-2q-2 0 -3 1t-6 3l-32 41z" />
<glyph unicode="&#x2000;" horiz-adv-x="816" />
<glyph unicode="&#x2001;" horiz-adv-x="1632" />
<glyph unicode="&#x2002;" horiz-adv-x="816" />
<glyph unicode="&#x2003;" horiz-adv-x="1632" />
<glyph unicode="&#x2004;" horiz-adv-x="544" />
<glyph unicode="&#x2005;" horiz-adv-x="408" />
<glyph unicode="&#x2006;" horiz-adv-x="272" />
<glyph unicode="&#x2007;" horiz-adv-x="272" />
<glyph unicode="&#x2008;" horiz-adv-x="204" />
<glyph unicode="&#x2009;" horiz-adv-x="326" />
<glyph unicode="&#x200a;" horiz-adv-x="90" />
<glyph unicode="&#x2010;" horiz-adv-x="700" d="M84 330v2q121 27 301 26q98 0 129 -17t31 -69q-6 -20 -10.5 -26t-24.5 -8l-283 -23q-37 -4 -59 -4q-57 0 -70.5 17.5t-13.5 101.5z" />
<glyph unicode="&#x2011;" horiz-adv-x="700" d="M84 330v2q121 27 301 26q98 0 129 -17t31 -69q-6 -20 -10.5 -26t-24.5 -8l-283 -23q-37 -4 -59 -4q-57 0 -70.5 17.5t-13.5 101.5z" />
<glyph unicode="&#x2012;" horiz-adv-x="700" d="M84 330v2q121 27 301 26q98 0 129 -17t31 -69q-6 -20 -10.5 -26t-24.5 -8l-283 -23q-37 -4 -59 -4q-57 0 -70.5 17.5t-13.5 101.5z" />
<glyph unicode="&#x2013;" d="M-106 283q0 29 10 48t30 23q41 -4 99 -8q66 -4 207 -4l448 2h57q10 0 54 2q33 2 55 2h18q33 0 39.5 -6t6.5 -49v-12q0 -37 -35 -48.5t-158 -9.5l-115 2h-524q-135 0 -163.5 11.5t-28.5 46.5z" />
<glyph unicode="&#x2014;" horiz-adv-x="2048" d="M-98 283q0 31 9 49t32 22q47 -4 96 -8q59 -4 207 -4l1474 2q8 0 26.5 -1t31.5 1q10 0 51 2q35 2 55 2h21q31 0 37 -6t6 -49v-12q0 -37 -35 -48.5t-160 -9.5l-113 2h-1548q-135 0 -160 11q-31 12 -30 47z" />
<glyph unicode="&#x2018;" horiz-adv-x="507" d="M297 1001q0 33 20 121q8 53 33 154q6 20 45 20v2q12 -2 27 -8q4 -2 4 -8v-16q0 -137 -24.5 -224.5t-67.5 -87.5q-18 0 -27.5 12.5t-9.5 34.5z" />
<glyph unicode="&#x2019;" horiz-adv-x="507" d="M305 993q0 10 19 78q10 35 45 127q25 61 24 62q20 37 51 36q14 0 31 -10q10 -10 10 -29q0 -25 -34 -106q-29 -70 -52 -129l-6 -14q-16 -39 -49 -39v2q-10 -2 -16 0q-8 0 -13 2q-10 10 -10 20z" />
<glyph unicode="&#x201a;" horiz-adv-x="507" d="M37 -129q0 20 16 78q29 98 64 172q8 18 16 29q18 18 41 18q25 0 33 -8t8 -33q0 -31 -35 -109q-18 -41 -53 -127v-2q-2 0 -2 -2v-2q-16 -43 -55 -43q-33 0 -33 29z" />
<glyph unicode="&#x201c;" horiz-adv-x="681" d="M297 1001q0 33 20 121q8 53 33 154q6 20 45 20v2q12 -2 27 -8q4 -2 4 -8v-16q0 -137 -24.5 -224.5t-67.5 -87.5q-18 0 -27.5 12.5t-9.5 34.5zM469 1001q0 33 20 121q8 53 33 154q2 8 12.5 14t34.5 6v2q10 -2 25 -8q4 -2 4 -8v-16q0 -145 -22.5 -228.5t-67.5 -83.5 q-18 0 -28.5 12.5t-10.5 34.5z" />
<glyph unicode="&#x201d;" horiz-adv-x="681" d="M305 993q0 10 19 78q10 35 45 127q25 61 24 62q20 37 51 36q14 0 31 -10q10 -10 10 -33t-34.5 -102.5t-51.5 -128.5l-6 -14q-16 -39 -49 -39v2q-10 -2 -16 0q-8 0 -13 2q-10 10 -10 20zM481 993q0 29 17 80q20 63 45 125q10 31 39 80q14 18 41 18q18 0 29.5 -9t11.5 -27 q0 -25 -37 -107t-54 -131l-6 -16q-16 -37 -49 -37v2q-8 -2 -16 0q-8 0 -13 2q-8 16 -8 20z" />
<glyph unicode="&#x201e;" horiz-adv-x="681" d="M37 -129q0 20 16 78q29 98 64 172q8 18 16 29q18 18 41 18q25 0 33 -10.5t8 -32.5q0 -33 -36 -108.5t-52 -125.5v-2q-2 0 -2 -2v-2q-16 -43 -55 -43q-33 0 -33 29zM213 -129q0 20 16 78q35 119 62 172q10 18 18 29q18 18 41 18q20 0 30.5 -8t10.5 -31q0 -29 -37 -111 q-16 -43 -53 -127v-2q-2 0 -2 -2v-2q-12 -43 -53 -43q-33 0 -33 29z" />
<glyph unicode="&#x2022;" horiz-adv-x="1206" d="M305 760v2q0 123 88 208t209 85q123 0 209 -88t86 -207q0 -125 -86 -211t-211 -86q-123 0 -209 86t-86 211z" />
<glyph unicode="&#x2026;" horiz-adv-x="2048" d="M129 39q0 53 41 91t94 38q37 0 49 -16q20 -16 21 -43q0 -70 -80 -127q-19 -13 -35 -13q-90 0 -90 70zM811 39q0 53 41 91t94 38q37 0 49 -16q20 -16 21 -43q0 -70 -80 -127q-19 -13 -35 -13q-90 0 -90 70zM1495 39q0 53 41 91t94 38q37 0 49 -16q20 -16 21 -43 q0 -70 -80 -127q-19 -13 -35 -13q-90 0 -90 70z" />
<glyph unicode="&#x202f;" horiz-adv-x="326" />
<glyph unicode="&#x2039;" horiz-adv-x="407" d="M57 279q0 12 33 55q25 33 88 100q41 43 43 43h12q6 0 12.5 -2t22.5 -8q27 -8 27 -25q0 -6 -27 -36q-66 -76 -112 -125v2q10 -45 39 -109q20 -41 20 -49q0 -25 -43 -35q-12 -4 -29 -4q-12 0 -49 76t-37 117z" />
<glyph unicode="&#x203a;" horiz-adv-x="407" d="M33 121q0 4 104 129l33 39q-4 16 -14 49q-8 16 -23 49l-18 37q-6 12 -6 14q0 16 23.5 27.5t45.5 11.5q14 0 51 -76.5t37 -115.5q0 -12 -33 -56q-39 -51 -88 -100q-4 -4 -9 -10t-9 -10q-14 -23 -27 -23q-20 0 -43.5 11.5t-23.5 23.5z" />
<glyph unicode="&#x205f;" horiz-adv-x="408" />
<glyph unicode="&#x2122;" horiz-adv-x="1705" d="M254 1389v65h438v-65h-172v-467h-94v467h-172zM817 922v532h129l162 -403l147 403h134v-532h-82v456l-172 -456h-56l-180 456v-456h-82z" />
<glyph unicode="&#xe000;" horiz-adv-x="634" d="M0 0v635h635v-635h-635z" />
</font>
</defs>
</svg>
